<svg viewBox="0 0 64 64" xmlns="http://www.w3.org/2000/svg" shape-rendering="crispEdges" width="64" height="64">
  <!-- 突擊手 TCG 卡牌風 — 正面半身，橙色系，持衝鋒槍 -->

  <!-- 頭盔外框 -->
  <rect x="18" y="4" width="28" height="22" fill="#0A0A0A"/>
  <!-- 頭盔主體（深棕軍色） -->
  <rect x="19" y="5" width="26" height="20" fill="#2A1800"/>
  <!-- 頭盔正面板（橙色系） -->
  <rect x="22" y="6" width="20" height="10" fill="#8A3200"/>
  <!-- 頭盔高光（左上） -->
  <rect x="22" y="6" width="6" height="3" fill="#E8600A"/>
  <!-- 頭盔護面（戰術面罩） -->
  <rect x="21" y="13" width="22" height="7" fill="#1A0C00"/>
  <!-- 面罩縫隙（呼吸格）  -->
  <rect x="23" y="15" width="4" height="2" fill="#2A1400"/>
  <rect x="29" y="15" width="4" height="2" fill="#2A1400"/>
  <rect x="35" y="15" width="4" height="2" fill="#2A1400"/>
  <!-- 頭盔下沿 -->
  <rect x="19" y="23" width="26" height="2" fill="#1A0C00"/>

  <!-- 頸部 -->
  <rect x="27" y="26" width="10" height="5" fill="#1E1000"/>

  <!-- 肩甲左（橙色戰術甲） -->
  <rect x="8" y="28" width="16" height="12" fill="#0A0A0A"/>
  <rect x="9" y="29" width="14" height="10" fill="#6A2800"/>
  <rect x="9" y="29" width="5" height="4" fill="#E8600A"/>
  <!-- 肩甲右 -->
  <rect x="40" y="28" width="16" height="12" fill="#0A0A0A"/>
  <rect x="41" y="29" width="14" height="10" fill="#6A2800"/>
  <rect x="41" y="29" width="5" height="4" fill="#C04A00"/>

  <!-- 身體胸甲外框 -->
  <rect x="16" y="28" width="32" height="26" fill="#0A0A0A"/>
  <!-- 身體主體（深棕戰術背心） -->
  <rect x="17" y="29" width="30" height="24" fill="#2A1800"/>
  <!-- 胸甲正面 -->
  <rect x="20" y="31" width="24" height="16" fill="#381E00"/>
  <!-- 胸甲中線 -->
  <rect x="31" y="31" width="2" height="16" fill="#1A0C00"/>
  <!-- 胸甲高光 -->
  <rect x="20" y="31" width="8" height="4" fill="#8A3200"/>
  <!-- MOLLE 彈匣袋（胸口） -->
  <rect x="20" y="36" width="8" height="8" fill="#1E1000"/>
  <rect x="21" y="37" width="6" height="6" fill="#2A1800"/>
  <rect x="30" y="36" width="8" height="8" fill="#1E1000"/>
  <rect x="31" y="37" width="6" height="6" fill="#2A1800"/>
  <!-- 橙色識別臂章 -->
  <rect x="17" y="33" width="3" height="6" fill="#E8600A"/>

  <!-- 衝鋒槍（左臂延伸，最醒目武器） -->
  <rect x="2" y="34" width="16" height="8" fill="#0A0A0A"/>
  <rect x="3" y="35" width="14" height="6" fill="#282828"/>
  <!-- 槍管前端 -->
  <rect x="2" y="36" width="6" height="4" fill="#1E1E1E"/>
  <!-- 快拆彈匣 -->
  <rect x="9" y="41" width="6" height="8" fill="#222"/>
  <rect x="10" y="42" width="4" height="6" fill="#1A1A1A"/>
  <!-- 瞄準器 -->
  <rect x="5" y="33" width="8" height="2" fill="#333"/>
  <rect x="7" y="31" width="4" height="2" fill="#E8600A"/>

  <!-- 右臂（持槍後段） -->
  <rect x="50" y="32" width="12" height="14" fill="#0A0A0A"/>
  <rect x="51" y="33" width="10" height="12" fill="#2A1800"/>
  <!-- 握把 -->
  <rect x="54" y="39" width="4" height="6" fill="#1A1000"/>
</svg>
