<svg viewBox="0 0 64 64" xmlns="http://www.w3.org/2000/svg" shape-rendering="crispEdges" width="64" height="64">
  <!-- 爆破手 TCG 卡牌風 — 正面半身，紅色系，持炸藥引爆器 -->

  <!-- 頭盔外框 -->
  <rect x="18" y="4" width="28" height="22" fill="#0A0A0A"/>
  <!-- 頭盔主體（深紅軍色） -->
  <rect x="19" y="5" width="26" height="20" fill="#3A0A0A"/>
  <!-- 頭盔正面板（爆破紅） -->
  <rect x="22" y="6" width="20" height="10" fill="#8A1A1A"/>
  <!-- 頭盔高光（左上） -->
  <rect x="22" y="6" width="6" height="3" fill="#CC2222"/>
  <!-- 黃黑警告條紋（頭盔裝飾） -->
  <rect x="22" y="14" width="4" height="4" fill="#DDAA00"/>
  <rect x="26" y="14" width="4" height="4" fill="#1A0A0A"/>
  <rect x="30" y="14" width="4" height="4" fill="#DDAA00"/>
  <rect x="34" y="14" width="4" height="4" fill="#1A0A0A"/>
  <rect x="38" y="14" width="4" height="4" fill="#DDAA00"/>
  <!-- 頭盔護目鏡 -->
  <rect x="21" y="11" width="22" height="5" fill="#1E0808"/>
  <!-- 護目鏡反光 -->
  <rect x="22" y="12" width="4" height="2" fill="#CC2222"/>
  <rect x="35" y="12" width="4" height="2" fill="#CC2222"/>
  <!-- 頭盔下沿 -->
  <rect x="19" y="23" width="26" height="2" fill="#200808"/>

  <!-- 頸部 -->
  <rect x="27" y="26" width="10" height="5" fill="#280808"/>

  <!-- 肩甲左（重型爆破手甲） -->
  <rect x="8" y="28" width="16" height="12" fill="#0A0A0A"/>
  <rect x="9" y="29" width="14" height="10" fill="#601010"/>
  <rect x="9" y="29" width="5" height="4" fill="#CC2222"/>
  <!-- 警告條紋（肩甲） -->
  <rect x="9" y="35" width="14" height="3" fill="#DDAA00"/>
  <rect x="11" y="35" width="2" height="3" fill="#1A0A0A"/>
  <rect x="15" y="35" width="2" height="3" fill="#1A0A0A"/>
  <rect x="19" y="35" width="2" height="3" fill="#1A0A0A"/>
  <!-- 肩甲右 -->
  <rect x="40" y="28" width="16" height="12" fill="#0A0A0A"/>
  <rect x="41" y="29" width="14" height="10" fill="#601010"/>
  <rect x="41" y="29" width="5" height="4" fill="#AA1818"/>
  <rect x="41" y="35" width="14" height="3" fill="#DDAA00"/>
  <rect x="43" y="35" width="2" height="3" fill="#1A0A0A"/>
  <rect x="47" y="35" width="2" height="3" fill="#1A0A0A"/>
  <rect x="51" y="35" width="2" height="3" fill="#1A0A0A"/>

  <!-- 身體胸甲外框 -->
  <rect x="16" y="28" width="32" height="26" fill="#0A0A0A"/>
  <!-- 身體主體（深紅重甲） -->
  <rect x="17" y="29" width="30" height="24" fill="#3A0A0A"/>
  <!-- 胸甲正面 -->
  <rect x="20" y="31" width="24" height="16" fill="#4A0E0E"/>
  <!-- 胸甲中線 -->
  <rect x="31" y="31" width="2" height="16" fill="#200808"/>
  <!-- 胸甲高光 -->
  <rect x="20" y="31" width="8" height="4" fill="#8A1A1A"/>
  <!-- 炸藥條（胸口掛件） -->
  <rect x="22" y="36" width="20" height="4" fill="#DDAA00"/>
  <rect x="24" y="37" width="2" height="2" fill="#CC2222"/>
  <rect x="29" y="37" width="2" height="2" fill="#CC2222"/>
  <rect x="34" y="37" width="2" height="2" fill="#CC2222"/>
  <rect x="39" y="37" width="2" height="2" fill="#CC2222"/>
  <!-- 識別臂章（紅色） -->
  <rect x="17" y="33" width="3" height="6" fill="#CC2222"/>

  <!-- 引爆器（左手持，最醒目道具） -->
  <rect x="2" y="33" width="14" height="18" fill="#0A0A0A"/>
  <rect x="3" y="34" width="12" height="16" fill="#5A1010"/>
  <!-- 引爆器螢幕 -->
  <rect x="4" y="35" width="10" height="6" fill="#001A00"/>
  <rect x="5" y="36" width="8" height="4" fill="#00CC00"/>
  <!-- 引爆器按鈕（紅色大鈕） -->
  <rect x="5" y="43" width="4" height="4" fill="#EE0000"/>
  <rect x="6" y="44" width="2" height="2" fill="#FF4444"/>
  <rect x="11" y="43" width="3" height="3" fill="#880000"/>
  <!-- 引爆線 -->
  <rect x="14" y="38" width="4" height="2" fill="#DDAA00"/>

  <!-- 右臂 -->
  <rect x="50" y="32" width="12" height="14" fill="#0A0A0A"/>
  <rect x="51" y="33" width="10" height="12" fill="#3A0A0A"/>

  <!-- ▼ 質感強化：邊緣高光與識別亮點 ▼ -->
  <!-- 頭盔頂部亮邊（rim light） -->
  <rect x="22" y="5" width="14" height="1" fill="#EE4444"/>
  <!-- 引爆器螢幕綠光高亮（爆破辨識，呼應危險感） -->
  <rect x="5" y="36" width="8" height="1" fill="#33FF33"/>
  <!-- 引爆器紅鈕高光（蓄勢待發） -->
  <rect x="6" y="43" width="1" height="1" fill="#FF8888"/>
  <!-- 護目鏡冷光點 -->
  <rect x="23" y="12" width="1" height="1" fill="#FF6666"/>
  <rect x="36" y="12" width="1" height="1" fill="#FF6666"/>
  <!-- 肩甲頂緣高光 -->
  <rect x="9" y="29" width="14" height="1" fill="#DD3333"/>
  <rect x="41" y="29" width="14" height="1" fill="#AA2222"/>
  <!-- 胸甲底部陰影 -->
  <rect x="20" y="45" width="24" height="2" fill="#200808"/>
</svg>
