<svg viewBox="0 0 48 48" xmlns="http://www.w3.org/2000/svg" shape-rendering="crispEdges" width="48" height="48">
  <!-- 精英 TCG 卡牌風 — 正面半身，橙紅色系 #E87020，精良頭盔+護目鏡，衝鋒槍，胸甲 -->

  <!-- 頭盔外框（精良型，比普通兵寬實） -->
  <rect x="13" y="3" width="22" height="17" fill="#0A0A0A"/>
  <!-- 頭盔主體（深橙棕，厚實軍用） -->
  <rect x="14" y="4" width="20" height="15" fill="#5A2800"/>
  <!-- 頭盔正面板（橙紅識別色） -->
  <rect x="16" y="5" width="16" height="8" fill="#994010"/>
  <!-- 頭盔高光（左上，鮮亮橙） -->
  <rect x="16" y="5" width="5" height="3" fill="#E87020"/>
  <!-- 頭盔側面條紋 -->
  <rect x="14" y="6" width="2" height="6" fill="#E87020"/>

  <!-- 護目鏡（雙鏡片，精英識別特徵） -->
  <rect x="15" y="12" width="7" height="5" fill="#0A0A0A"/>
  <rect x="26" y="12" width="7" height="5" fill="#0A0A0A"/>
  <rect x="16" y="13" width="5" height="3" fill="#E87020"/>
  <rect x="27" y="13" width="5" height="3" fill="#E87020"/>
  <!-- 護目鏡高光 -->
  <rect x="16" y="13" width="2" height="1" fill="#FFCC88"/>
  <rect x="27" y="13" width="2" height="1" fill="#FFCC88"/>
  <!-- 護目鏡鼻橋連接 -->
  <rect x="22" y="13" width="4" height="2" fill="#200A00"/>

  <!-- 頭盔護面（全覆蓋型，比普通兵更寬） -->
  <rect x="14" y="17" width="20" height="4" fill="#1A0800"/>
  <!-- 護面通氣格（三排，精緻） -->
  <rect x="16" y="18" width="3" height="2" fill="#2A1000"/>
  <rect x="21" y="18" width="3" height="2" fill="#2A1000"/>
  <rect x="26" y="18" width="3" height="2" fill="#2A1000"/>
  <!-- 頭盔下沿 -->
  <rect x="14" y="20" width="20" height="2" fill="#1A0800"/>

  <!-- 頸部 -->
  <rect x="20" y="22" width="8" height="4" fill="#200A00"/>

  <!-- 肩甲左（厚實板甲） -->
  <rect x="5" y="22" width="12" height="10" fill="#0A0A0A"/>
  <rect x="6" y="23" width="10" height="8" fill="#5A2800"/>
  <rect x="6" y="23" width="4" height="4" fill="#E87020"/>
  <!-- 肩甲左護板 -->
  <rect x="6" y="27" width="10" height="2" fill="#3A1800"/>

  <!-- 肩甲右 -->
  <rect x="31" y="22" width="12" height="10" fill="#0A0A0A"/>
  <rect x="32" y="23" width="10" height="8" fill="#5A2800"/>
  <rect x="32" y="23" width="4" height="4" fill="#C05010"/>
  <!-- 肩甲右護板 -->
  <rect x="32" y="27" width="10" height="2" fill="#3A1800"/>

  <!-- 身體胸甲外框（比普通兵更寬） -->
  <rect x="11" y="22" width="26" height="22" fill="#0A0A0A"/>
  <!-- 身體主體（橙棕戰術外套） -->
  <rect x="12" y="23" width="24" height="20" fill="#4A1E00"/>
  <!-- 胸甲正面板（厚重板甲） -->
  <rect x="14" y="24" width="20" height="14" fill="#6A2C00"/>
  <!-- 胸甲中線 -->
  <rect x="23" y="24" width="2" height="14" fill="#2A1000"/>
  <!-- 胸甲高光（大面積橙） -->
  <rect x="14" y="24" width="7" height="4" fill="#994010"/>
  <!-- MOLLE 彈匣袋（雙排，精英裝備） -->
  <rect x="14" y="30" width="8" height="7" fill="#200A00"/>
  <rect x="15" y="31" width="6" height="5" fill="#3A1800"/>
  <rect x="23" y="30" width="8" height="7" fill="#200A00"/>
  <rect x="24" y="31" width="6" height="5" fill="#3A1800"/>
  <!-- 胸甲邊框條 -->
  <rect x="14" y="28" width="20" height="2" fill="#3A1800"/>

  <!-- 衝鋒槍（左臂，短管威脅感） -->
  <rect x="1" y="26" width="13" height="9" fill="#0A0A0A"/>
  <rect x="2" y="27" width="11" height="7" fill="#282828"/>
  <!-- 槍管前端（帶消焰器） -->
  <rect x="1" y="28" width="5" height="5" fill="#1E1E1E"/>
  <rect x="1" y="29" width="2" height="3" fill="#111"/>
  <!-- 快拆彈匣（大型） -->
  <rect x="7" y="35" width="5" height="7" fill="#1A1A1A"/>
  <rect x="8" y="36" width="3" height="5" fill="#111"/>
  <!-- 皮卡汀尼導軌 -->
  <rect x="2" y="26" width="10" height="2" fill="#333"/>
  <!-- 瞄準器（精確型） -->
  <rect x="4" y="24" width="6" height="3" fill="#2A2A2A"/>
  <rect x="5" y="23" width="4" height="2" fill="#E87020"/>

  <!-- 右臂（持槍後段，有護臂） -->
  <rect x="38" y="24" width="10" height="14" fill="#0A0A0A"/>
  <rect x="39" y="25" width="8" height="12" fill="#4A1E00"/>
  <!-- 護臂板 -->
  <rect x="39" y="25" width="8" height="5" fill="#6A2C00"/>
  <!-- 握把 -->
  <rect x="42" y="33" width="5" height="6" fill="#2A1000"/>
</svg>
