<svg viewBox="0 0 64 64" xmlns="http://www.w3.org/2000/svg" shape-rendering="crispEdges" width="64" height="64">
  <!-- 醫療兵 TCG 卡牌風 — 正面半身，綠色系，有醫療包與紅十字 -->

  <!-- 頭盔外框 -->
  <rect x="18" y="4" width="28" height="22" fill="#0A0A0A"/>
  <!-- 頭盔主體（橄欖綠） -->
  <rect x="19" y="5" width="26" height="20" fill="#1A3A1A"/>
  <!-- 頭盔正面板（醫療綠） -->
  <rect x="22" y="6" width="20" height="10" fill="#2A7A2A"/>
  <!-- 頭盔高光（左上） -->
  <rect x="22" y="6" width="6" height="3" fill="#44CC44"/>
  <!-- 頭盔紅十字標誌 -->
  <rect x="29" y="7" width="6" height="2" fill="#EE3333"/>
  <rect x="31" y="6" width="2" height="4" fill="#EE3333"/>
  <!-- 頭盔護目鏡 -->
  <rect x="21" y="14" width="10" height="6" fill="#0A2A0A"/>
  <rect x="33" y="14" width="10" height="6" fill="#0A2A0A"/>
  <!-- 護目鏡反光 -->
  <rect x="22" y="15" width="3" height="2" fill="#44CC44"/>
  <rect x="34" y="15" width="3" height="2" fill="#44CC44"/>
  <!-- 頭盔下沿 -->
  <rect x="19" y="23" width="26" height="2" fill="#0A1E0A"/>

  <!-- 頸部 -->
  <rect x="27" y="26" width="10" height="5" fill="#162816"/>

  <!-- 肩甲左（綠色軍甲） -->
  <rect x="8" y="28" width="16" height="12" fill="#0A0A0A"/>
  <rect x="9" y="29" width="14" height="10" fill="#1E5C1E"/>
  <rect x="9" y="29" width="5" height="4" fill="#44CC44"/>
  <!-- 肩甲右 -->
  <rect x="40" y="28" width="16" height="12" fill="#0A0A0A"/>
  <rect x="41" y="29" width="14" height="10" fill="#1E5C1E"/>
  <rect x="41" y="29" width="5" height="4" fill="#33AA33"/>

  <!-- 身體胸甲外框 -->
  <rect x="16" y="28" width="32" height="26" fill="#0A0A0A"/>
  <!-- 身體主體（橄欖綠軍裝） -->
  <rect x="17" y="29" width="30" height="24" fill="#1A3A1A"/>
  <!-- 胸甲正面 -->
  <rect x="20" y="31" width="24" height="16" fill="#1E4C1E"/>
  <!-- 胸甲中線 -->
  <rect x="31" y="31" width="2" height="16" fill="#0F280F"/>
  <!-- 胸甲高光 -->
  <rect x="20" y="31" width="8" height="4" fill="#2A7A2A"/>
  <!-- 胸口大紅十字 -->
  <rect x="27" y="35" width="10" height="3" fill="#EE3333"/>
  <rect x="30" y="33" width="4" height="7" fill="#EE3333"/>

  <!-- 醫療包（左側，大型特徵） -->
  <rect x="2" y="32" width="14" height="18" fill="#0A0A0A"/>
  <rect x="3" y="33" width="12" height="16" fill="#C8C830"/>
  <!-- 醫療包掛帶 -->
  <rect x="5" y="30" width="8" height="4" fill="#8A8A00"/>
  <!-- 醫療包紅十字 -->
  <rect x="6" y="37" width="6" height="2" fill="#EE1111"/>
  <rect x="8" y="35" width="2" height="6" fill="#EE1111"/>
  <!-- 醫療包口袋 -->
  <rect x="3" y="43" width="12" height="4" fill="#B8B820"/>
  <rect x="4" y="44" width="10" height="2" fill="#A0A010"/>

  <!-- 右臂 + 醫療手槍 -->
  <rect x="50" y="32" width="10" height="18" fill="#0A0A0A"/>
  <rect x="51" y="33" width="8" height="16" fill="#162816"/>
  <!-- 手槍 -->
  <rect x="52" y="36" width="7" height="4" fill="#2A2A2A"/>
  <rect x="55" y="40" width="4" height="6" fill="#222"/>
  <rect x="52" y="36" width="2" height="4" fill="#404040"/>
</svg>
