<svg viewBox="0 0 64 64" xmlns="http://www.w3.org/2000/svg" shape-rendering="crispEdges" width="64" height="64">
  <!-- 偵察手 TCG 卡牌風 — 正面半身，青色系，持無線電 -->

  <!-- 頭盔外框 -->
  <rect x="18" y="4" width="28" height="22" fill="#0A0A0A"/>
  <!-- 頭盔主體（深青灰） -->
  <rect x="19" y="5" width="26" height="20" fill="#0A2A2A"/>
  <!-- 頭盔正面板（青色系） -->
  <rect x="22" y="6" width="20" height="10" fill="#1A6A6A"/>
  <!-- 頭盔高光（左上） -->
  <rect x="22" y="6" width="6" height="3" fill="#44CCCC"/>
  <!-- 夜視鏡（雙管，正面突出，最醒目特徵） -->
  <rect x="24" y="11" width="7" height="6" fill="#0A0A0A"/>
  <rect x="25" y="12" width="5" height="4" fill="#001A1A"/>
  <rect x="26" y="12" width="3" height="4" fill="#00AAAA"/>
  <rect x="33" y="11" width="7" height="6" fill="#0A0A0A"/>
  <rect x="34" y="12" width="5" height="4" fill="#001A1A"/>
  <rect x="35" y="12" width="3" height="4" fill="#00AAAA"/>
  <!-- 夜視鏡橋接架 -->
  <rect x="30" y="12" width="4" height="3" fill="#1A2A2A"/>
  <!-- 天線（頭盔左側） -->
  <rect x="19" y="2" width="2" height="8" fill="#44CCCC"/>
  <rect x="18" y="2" width="4" height="2" fill="#2A9A9A"/>
  <!-- 頭盔下沿 -->
  <rect x="19" y="23" width="26" height="2" fill="#061818"/>

  <!-- 頸部 -->
  <rect x="27" y="26" width="10" height="5" fill="#0A1E1E"/>

  <!-- 肩甲左（青色輕甲） -->
  <rect x="8" y="28" width="16" height="12" fill="#0A0A0A"/>
  <rect x="9" y="29" width="14" height="10" fill="#1A4A4A"/>
  <rect x="9" y="29" width="5" height="4" fill="#44CCCC"/>
  <!-- 肩甲右 -->
  <rect x="40" y="28" width="16" height="12" fill="#0A0A0A"/>
  <rect x="41" y="29" width="14" height="10" fill="#1A4A4A"/>
  <rect x="41" y="29" width="5" height="4" fill="#33AAAA"/>

  <!-- 身體胸甲外框 -->
  <rect x="16" y="28" width="32" height="26" fill="#0A0A0A"/>
  <!-- 身體主體（深青輕型背心） -->
  <rect x="17" y="29" width="30" height="24" fill="#0A2A2A"/>
  <!-- 胸甲正面 -->
  <rect x="20" y="31" width="24" height="16" fill="#0E3838"/>
  <!-- 胸甲中線 -->
  <rect x="31" y="31" width="2" height="16" fill="#061A1A"/>
  <!-- 胸甲高光 -->
  <rect x="20" y="31" width="8" height="4" fill="#1A6A6A"/>
  <!-- 識別臂章（青色） -->
  <rect x="17" y="33" width="3" height="6" fill="#44CCCC"/>
  <!-- 資料板夾（胸口） -->
  <rect x="24" y="34" width="8" height="10" fill="#062020"/>
  <rect x="25" y="35" width="6" height="8" fill="#0A3030"/>
  <rect x="26" y="36" width="4" height="2" fill="#44CCCC"/>
  <rect x="26" y="39" width="4" height="1" fill="#2A8A8A"/>
  <rect x="26" y="41" width="4" height="1" fill="#2A8A8A"/>

  <!-- 無線電（左手持，最醒目道具） -->
  <rect x="2" y="30" width="14" height="22" fill="#0A0A0A"/>
  <rect x="3" y="31" width="12" height="20" fill="#0E3838"/>
  <!-- 無線電天線 -->
  <rect x="5" y="22" width="2" height="10" fill="#44CCCC"/>
  <!-- 無線電螢幕 -->
  <rect x="4" y="32" width="10" height="6" fill="#001A1A"/>
  <rect x="5" y="33" width="8" height="4" fill="#00AA88"/>
  <!-- 無線電按鈕列 -->
  <rect x="4" y="40" width="3" height="3" fill="#44CCCC"/>
  <rect x="9" y="40" width="3" height="3" fill="#1A6A6A"/>
  <rect x="4" y="44" width="3" height="3" fill="#1A6A6A"/>
  <rect x="9" y="44" width="3" height="3" fill="#44CCCC"/>

  <!-- 右臂（持手槍） -->
  <rect x="50" y="32" width="12" height="16" fill="#0A0A0A"/>
  <rect x="51" y="33" width="10" height="14" fill="#0A2A2A"/>
  <!-- 手槍 -->
  <rect x="52" y="36" width="7" height="4" fill="#1A1A1A"/>
  <rect x="55" y="40" width="4" height="5" fill="#141414"/>

  <!-- ▼ 質感強化：邊緣高光與識別亮點 ▼ -->
  <!-- 頭盔頂部亮邊（rim light） -->
  <rect x="22" y="5" width="14" height="1" fill="#55EEEE"/>
  <!-- 夜視鏡鏡片發光（青色辨識，最醒目特徵更亮） -->
  <rect x="26" y="12" width="3" height="1" fill="#22FFFF"/>
  <rect x="35" y="12" width="3" height="1" fill="#22FFFF"/>
  <!-- 天線尖端訊號燈 -->
  <rect x="19" y="2" width="2" height="1" fill="#88FFFF"/>
  <!-- 無線電螢幕高亮 -->
  <rect x="5" y="33" width="8" height="1" fill="#33FFCC"/>
  <!-- 肩甲頂緣高光 -->
  <rect x="9" y="29" width="14" height="1" fill="#44DDDD"/>
  <rect x="41" y="29" width="14" height="1" fill="#2D9A9A"/>
  <!-- 胸甲底部陰影 -->
  <rect x="20" y="45" width="24" height="2" fill="#061818"/>
</svg>
