<svg viewBox="0 0 64 64" xmlns="http://www.w3.org/2000/svg" shape-rendering="crispEdges" width="64" height="64">
  <!-- 盾兵 TCG 卡牌風 — 正面半身，藍色系，持大盾 -->

  <!-- 頭盔外框 -->
  <rect x="18" y="4" width="28" height="22" fill="#0A0A0A"/>
  <!-- 頭盔主體（深藍） -->
  <rect x="19" y="5" width="26" height="20" fill="#1A2D5A"/>
  <!-- 頭盔正面板（職業藍） -->
  <rect x="22" y="6" width="20" height="10" fill="#2255BB"/>
  <!-- 頭盔高光（左上） -->
  <rect x="22" y="6" width="6" height="3" fill="#4488FF"/>
  <!-- 頭盔護目鏡 -->
  <rect x="21" y="14" width="10" height="6" fill="#0D1F44"/>
  <rect x="33" y="14" width="10" height="6" fill="#0D1F44"/>
  <!-- 護目鏡反光 -->
  <rect x="22" y="15" width="3" height="2" fill="#4488FF"/>
  <rect x="34" y="15" width="3" height="2" fill="#4488FF"/>
  <!-- 頭盔下沿 -->
  <rect x="19" y="23" width="26" height="2" fill="#0D1830"/>

  <!-- 頸部 -->
  <rect x="27" y="26" width="10" height="5" fill="#1A2840"/>

  <!-- 肩甲左（藍色重裝甲） -->
  <rect x="8" y="28" width="16" height="12" fill="#0A0A0A"/>
  <rect x="9" y="29" width="14" height="10" fill="#1844A8"/>
  <rect x="9" y="29" width="5" height="4" fill="#4488FF"/>
  <!-- 肩甲右 -->
  <rect x="40" y="28" width="16" height="12" fill="#0A0A0A"/>
  <rect x="41" y="29" width="14" height="10" fill="#1844A8"/>
  <rect x="41" y="29" width="5" height="4" fill="#3366CC"/>

  <!-- 身體胸甲外框 -->
  <rect x="16" y="28" width="32" height="26" fill="#0A0A0A"/>
  <!-- 身體胸甲主體 -->
  <rect x="17" y="29" width="30" height="24" fill="#1A2D5A"/>
  <!-- 胸甲正面板 -->
  <rect x="20" y="31" width="24" height="16" fill="#1D3368"/>
  <!-- 胸甲中線 -->
  <rect x="31" y="31" width="2" height="16" fill="#0F1D40"/>
  <!-- 胸甲高光 -->
  <rect x="20" y="31" width="8" height="4" fill="#2255BB"/>
  <!-- 防彈板鉚釘 -->
  <rect x="22" y="38" width="3" height="3" fill="#4488FF"/>
  <rect x="39" y="38" width="3" height="3" fill="#2255BB"/>

  <!-- 大盾（左臂延伸，最醒目特徵） -->
  <rect x="2" y="30" width="14" height="24" fill="#0A0A0A"/>
  <rect x="3" y="31" width="12" height="22" fill="#0F2A7A"/>
  <rect x="3" y="31" width="4" height="22" fill="#1844A8"/>
  <!-- 盾面裝飾橫紋 -->
  <rect x="3" y="36" width="12" height="3" fill="#2255BB"/>
  <rect x="3" y="43" width="12" height="3" fill="#2255BB"/>
  <!-- 盾牌中央徽記 -->
  <rect x="6" y="39" width="6" height="6" fill="#4488FF"/>
  <rect x="7" y="40" width="4" height="4" fill="#2255BB"/>

  <!-- 右臂 + 副武器（短衝鋒槍） -->
  <rect x="50" y="32" width="10" height="20" fill="#0A0A0A"/>
  <rect x="51" y="33" width="8" height="18" fill="#1A2840"/>
  <!-- 槍管 -->
  <rect x="52" y="33" width="3" height="12" fill="#282828"/>
  <rect x="52" y="33" width="1" height="12" fill="#404040"/>
  <!-- 彈匣 -->
  <rect x="54" y="38" width="5" height="8" fill="#222"/>

  <!-- ▼ 質感強化：邊緣高光與識別亮點 ▼ -->
  <!-- 頭盔頂部亮邊（rim light） -->
  <rect x="22" y="5" width="14" height="1" fill="#5599FF"/>
  <!-- 護目鏡掃描亮點 -->
  <rect x="29" y="15" width="2" height="1" fill="#88BBFF"/>
  <!-- 盾牌外緣強光（金屬反光，凸顯主特徵） -->
  <rect x="3" y="31" width="12" height="1" fill="#5599FF"/>
  <rect x="3" y="31" width="1" height="22" fill="#66AAFF"/>
  <!-- 盾牌中央徽記高光 -->
  <rect x="7" y="40" width="2" height="1" fill="#88CCFF"/>
  <!-- 肩甲頂緣高光 -->
  <rect x="9" y="29" width="14" height="1" fill="#4488FF"/>
  <rect x="41" y="29" width="14" height="1" fill="#2D66CC"/>
  <!-- 胸甲底部陰影 -->
  <rect x="20" y="45" width="24" height="2" fill="#0D1830"/>
</svg>
