<svg xmlns="http://www.w3.org/2000/svg" viewBox="0 0 1080 1920">
  <defs>
    <linearGradient id="skyGrad" x1="0" y1="0" x2="0" y2="1">
      <stop offset="0%" stop-color="#050A14"/>
      <stop offset="50%" stop-color="#071220"/>
      <stop offset="100%" stop-color="#0A1530"/>
    </linearGradient>
  </defs>

  <!-- 背景漸層 -->
  <rect width="1080" height="1920" fill="url(#skyGrad)"/>

  <!-- 探照燈光束（右側） -->
  <rect x="820" y="0" width="8" height="900" fill="#334488" opacity="0.15" transform="rotate(12 820 900)"/>
  <rect x="900" y="0" width="5" height="800" fill="#334488" opacity="0.10" transform="rotate(18 900 800)"/>

  <!-- 星星群（約 30 顆） -->
  <ellipse cx="54"  cy="48"  rx="1.5" ry="1.5" fill="white" opacity="0.65"/>
  <ellipse cx="140" cy="82"  rx="1"   ry="1"   fill="white" opacity="0.50"/>
  <ellipse cx="230" cy="35"  rx="2"   ry="2"   fill="white" opacity="0.70"/>
  <ellipse cx="310" cy="110" rx="1"   ry="1"   fill="white" opacity="0.45"/>
  <ellipse cx="412" cy="28"  rx="1.5" ry="1.5" fill="white" opacity="0.60"/>
  <ellipse cx="490" cy="68"  rx="1"   ry="1"   fill="white" opacity="0.55"/>
  <ellipse cx="560" cy="18"  rx="2"   ry="2"   fill="white" opacity="0.70"/>
  <ellipse cx="620" cy="90"  rx="1"   ry="1"   fill="white" opacity="0.40"/>
  <ellipse cx="700" cy="44"  rx="1.5" ry="1.5" fill="white" opacity="0.65"/>
  <ellipse cx="780" cy="22"  rx="1"   ry="1"   fill="white" opacity="0.50"/>
  <ellipse cx="850" cy="75"  rx="2"   ry="2"   fill="white" opacity="0.60"/>
  <ellipse cx="940" cy="38"  rx="1"   ry="1"   fill="white" opacity="0.45"/>
  <ellipse cx="1010" cy="88" rx="1.5" ry="1.5" fill="white" opacity="0.55"/>
  <ellipse cx="88"  cy="155" rx="1"   ry="1"   fill="white" opacity="0.40"/>
  <ellipse cx="175" cy="200" rx="1.5" ry="1.5" fill="white" opacity="0.60"/>
  <ellipse cx="260" cy="130" rx="1"   ry="1"   fill="white" opacity="0.50"/>
  <ellipse cx="355" cy="175" rx="2"   ry="2"   fill="white" opacity="0.65"/>
  <ellipse cx="450" cy="148" rx="1"   ry="1"   fill="white" opacity="0.42"/>
  <ellipse cx="535" cy="195" rx="1.5" ry="1.5" fill="white" opacity="0.58"/>
  <ellipse cx="640" cy="120" rx="1"   ry="1"   fill="white" opacity="0.50"/>
  <ellipse cx="730" cy="168" rx="2"   ry="2"   fill="white" opacity="0.68"/>
  <ellipse cx="820" cy="145" rx="1"   ry="1"   fill="white" opacity="0.44"/>
  <ellipse cx="900" cy="185" rx="1.5" ry="1.5" fill="white" opacity="0.60"/>
  <ellipse cx="975" cy="125" rx="1"   ry="1"   fill="white" opacity="0.46"/>
  <ellipse cx="30"  cy="240" rx="1.5" ry="1.5" fill="white" opacity="0.52"/>
  <ellipse cx="120" cy="280" rx="1"   ry="1"   fill="white" opacity="0.40"/>
  <ellipse cx="320" cy="260" rx="2"   ry="2"   fill="white" opacity="0.62"/>
  <ellipse cx="500" cy="248" rx="1"   ry="1"   fill="white" opacity="0.48"/>
  <ellipse cx="680" cy="235" rx="1.5" ry="1.5" fill="white" opacity="0.55"/>
  <ellipse cx="860" cy="258" rx="1"   ry="1"   fill="white" opacity="0.43"/>

  <!-- 中景：城市建築剪影（辦公大樓群） -->

  <!-- 最左側細高樓 -->
  <rect x="0"   y="580" width="80"  height="820" fill="#0D1F3C"/>
  <rect x="0"   y="620" width="80"  height="4"   fill="#0F2244" opacity="0.6"/>
  <rect x="0"   y="680" width="80"  height="4"   fill="#0F2244" opacity="0.6"/>
  <rect x="0"   y="740" width="80"  height="4"   fill="#0F2244" opacity="0.6"/>

  <!-- 左側矮建築 -->
  <rect x="60"  y="780" width="140" height="620" fill="#0B1A30"/>

  <!-- 左中高層辦公大樓 -->
  <rect x="180" y="420" width="160" height="980" fill="#0D1F3C"/>
  <!-- 窗格效果 -->
  <rect x="200" y="460" width="30"  height="20"  fill="#162848" opacity="0.8"/>
  <rect x="245" y="460" width="30"  height="20"  fill="#162848" opacity="0.8"/>
  <rect x="290" y="460" width="30"  height="20"  fill="#1E3B6A" opacity="0.9"/>
  <rect x="200" y="510" width="30"  height="20"  fill="#1E3B6A" opacity="0.9"/>
  <rect x="245" y="510" width="30"  height="20"  fill="#162848" opacity="0.8"/>
  <rect x="290" y="510" width="30"  height="20"  fill="#162848" opacity="0.8"/>
  <rect x="200" y="560" width="30"  height="20"  fill="#162848" opacity="0.8"/>
  <rect x="290" y="560" width="30"  height="20"  fill="#1E3B6A" opacity="0.9"/>

  <!-- 中央主塔 -->
  <rect x="330" y="300" width="200" height="1100" fill="#0C1C38"/>
  <!-- 天線 -->
  <rect x="420" y="240" width="6"   height="65"  fill="#0D1F3C"/>
  <rect x="416" y="258" width="14"  height="3"   fill="#0D1F3C"/>
  <!-- 窗格 -->
  <rect x="355" y="340" width="40"  height="25"  fill="#162848" opacity="0.8"/>
  <rect x="415" y="340" width="40"  height="25"  fill="#1E3B6A" opacity="0.9"/>
  <rect x="475" y="340" width="40"  height="25"  fill="#162848" opacity="0.8"/>
  <rect x="355" y="395" width="40"  height="25"  fill="#1E3B6A" opacity="0.9"/>
  <rect x="415" y="395" width="40"  height="25"  fill="#162848" opacity="0.8"/>
  <rect x="475" y="395" width="40"  height="25"  fill="#1E3B6A" opacity="0.9"/>
  <rect x="355" y="450" width="40"  height="25"  fill="#162848" opacity="0.8"/>
  <rect x="475" y="450" width="40"  height="25"  fill="#162848" opacity="0.8"/>

  <!-- 右中段中層建築 -->
  <rect x="520" y="560" width="180" height="740" fill="#0D1F3C"/>
  <rect x="540" y="600" width="35"  height="20"  fill="#162848" opacity="0.8"/>
  <rect x="595" y="600" width="35"  height="20"  fill="#1E3B6A" opacity="0.9"/>
  <rect x="650" y="600" width="35"  height="20"  fill="#162848" opacity="0.8"/>
  <rect x="540" y="650" width="35"  height="20"  fill="#1E3B6A" opacity="0.9"/>
  <rect x="650" y="650" width="35"  height="20"  fill="#162848" opacity="0.8"/>

  <!-- 停車場頂棚（中右） -->
  <rect x="680" y="680" width="220" height="40"  fill="#0B1A30"/>
  <rect x="680" y="718" width="220" height="4"   fill="#0D1F3C"/>
  <rect x="680" y="722" width="220" height="580" fill="#0A1828"/>
  <!-- 停車場支柱 -->
  <rect x="710" y="720" width="12"  height="580" fill="#0C1C38"/>
  <rect x="790" y="720" width="12"  height="580" fill="#0C1C38"/>
  <rect x="870" y="720" width="12"  height="580" fill="#0C1C38"/>

  <!-- 港口吊車輪廓（右側） -->
  <rect x="870" y="400" width="18"  height="980" fill="#0D1F3C"/>
  <rect x="870" y="400" width="180" height="18"  fill="#0D1F3C"/>
  <rect x="870" y="400" width="8"   height="80"  fill="#0C1C38"/>
  <!-- 吊車斜撐 -->
  <rect x="870" y="418" width="4"   height="120" fill="#0D1F3C" transform="rotate(45 870 418)"/>
  <!-- 吊繩 -->
  <rect x="970" y="418" width="3"   height="180" fill="#0C1C38" opacity="0.8"/>
  <rect x="967" y="598" width="9"   height="20"  fill="#0C1C38" opacity="0.8"/>

  <!-- 右側細高樓 -->
  <rect x="1000" y="460" width="80" height="940" fill="#0B1A30"/>
  <rect x="1020" y="500" width="25" height="18"  fill="#162848" opacity="0.8"/>
  <rect x="1020" y="545" width="25" height="18"  fill="#1E3B6A" opacity="0.9"/>
  <rect x="1020" y="590" width="25" height="18"  fill="#162848" opacity="0.8"/>

  <!-- 橙色水平光線（任務準備感） -->
  <rect x="0" y="798" width="1080" height="4" fill="#FF6600" opacity="0.15"/>

  <!-- 近景：地面線條 -->
  <rect x="0" y="1400" width="1080" height="520" fill="#0A1A2E"/>
  <rect x="0" y="1400" width="1080" height="3"   fill="#0D2040"/>

  <!-- 地面光點裝飾 -->
  <ellipse cx="120"  cy="1450" rx="4" ry="2" fill="#2244AA" opacity="0.6"/>
  <ellipse cx="310"  cy="1470" rx="3" ry="1.5" fill="#2244AA" opacity="0.5"/>
  <ellipse cx="540"  cy="1440" rx="5" ry="2.5" fill="#2244AA" opacity="0.6"/>
  <ellipse cx="720"  cy="1460" rx="3" ry="1.5" fill="#2244AA" opacity="0.55"/>
  <ellipse cx="920"  cy="1445" rx="4" ry="2"   fill="#2244AA" opacity="0.5"/>
  <ellipse cx="1040" cy="1475" rx="2.5" ry="1.2" fill="#2244AA" opacity="0.45"/>
  <ellipse cx="60"   cy="1490" rx="2"   ry="1"   fill="#2244AA" opacity="0.4"/>
  <ellipse cx="440"  cy="1510" rx="3.5" ry="1.5" fill="#2244AA" opacity="0.5"/>
  <ellipse cx="800"  cy="1495" rx="3"   ry="1.5" fill="#2244AA" opacity="0.45"/>
</svg>
