<svg xmlns="http://www.w3.org/2000/svg" width="960" height="540" shape-rendering="crispEdges">
  <defs>
    <linearGradient id="bgBanner" x1="0" y1="0" x2="1" y2="0">
      <stop offset="0%" stop-color="#080A0E"/>
      <stop offset="40%" stop-color="#0A0E1A"/>
      <stop offset="100%" stop-color="#0D1020"/>
    </linearGradient>
    <linearGradient id="fadeLeft" x1="0" y1="0" x2="1" y2="0">
      <stop offset="0%" stop-color="#080A0E" stop-opacity="1"/>
      <stop offset="100%" stop-color="#080A0E" stop-opacity="0"/>
    </linearGradient>
    <linearGradient id="fadeRight" x1="0" y1="0" x2="1" y2="0">
      <stop offset="0%" stop-color="#0D1020" stop-opacity="0"/>
      <stop offset="100%" stop-color="#0D1020" stop-opacity="1"/>
    </linearGradient>
    <linearGradient id="fadeBottom" x1="0" y1="0" x2="0" y2="1">
      <stop offset="0%" stop-color="#0A0C10" stop-opacity="0"/>
      <stop offset="100%" stop-color="#050608" stop-opacity="1"/>
    </linearGradient>
  </defs>

  <!-- 背景 -->
  <rect width="960" height="540" fill="url(#bgBanner)"/>

  <!-- 廢墟走廊透視感 — 牆壁灰色矩形 -->
  <!-- 左牆 -->
  <rect x="0" y="0" width="80" height="540" fill="#0C0E14"/>
  <rect x="76" y="0" width="4" height="540" fill="#141820"/>
  <rect x="80" y="0" width="60" height="540" fill="#0E1018"/>
  <rect x="136" y="0" width="4" height="540" fill="#141820"/>

  <!-- 右牆 -->
  <rect x="880" y="0" width="80" height="540" fill="#0C0E14"/>
  <rect x="880" y="0" width="4" height="540" fill="#141820"/>
  <rect x="820" y="0" width="60" height="540" fill="#0E1018"/>
  <rect x="820" y="0" width="4" height="540" fill="#141820"/>

  <!-- 天花板 -->
  <rect x="0" y="0" width="960" height="60" fill="#0A0C10"/>
  <rect x="0" y="56" width="960" height="4" fill="#141820"/>
  <rect x="0" y="60" width="960" height="30" fill="#0C0E14"/>
  <rect x="0" y="86" width="960" height="4" fill="#141820"/>

  <!-- 地板 -->
  <rect x="0" y="460" width="960" height="80" fill="#0A0C10"/>
  <rect x="0" y="456" width="960" height="4" fill="#141820"/>
  <rect x="0" y="440" width="960" height="20" fill="#0C0E14"/>
  <rect x="0" y="436" width="960" height="4" fill="#141820"/>

  <!-- 地板格線 -->
  <rect x="140" y="460" width="2" height="80" fill="#141820"/>
  <rect x="280" y="460" width="2" height="80" fill="#141820"/>
  <rect x="420" y="460" width="2" height="80" fill="#141820"/>
  <rect x="560" y="460" width="2" height="80" fill="#141820"/>
  <rect x="700" y="460" width="2" height="80" fill="#141820"/>
  <rect x="840" y="460" width="2" height="80" fill="#141820"/>

  <!-- 天花板燈條 -->
  <rect x="200" y="56" width="120" height="4" fill="#1A2040" opacity="0.8"/>
  <rect x="400" y="56" width="160" height="4" fill="#1A2040" opacity="0.8"/>
  <rect x="640" y="56" width="120" height="4" fill="#1A2040" opacity="0.8"/>

  <!-- 牆面損傷細節 -->
  <rect x="84" y="120" width="8" height="4" fill="#0A0C10"/>
  <rect x="88" y="124" width="4" height="8" fill="#0A0C10"/>
  <rect x="88" y="200" width="12" height="4" fill="#0A0C10"/>
  <rect x="84" y="300" width="8" height="12" fill="#0A0C10"/>
  <rect x="836" y="140" width="8" height="4" fill="#0A0C10"/>
  <rect x="832" y="220" width="12" height="8" fill="#0A0C10"/>
  <rect x="840" y="320" width="8" height="12" fill="#0A0C10"/>

  <!-- ======================================= -->
  <!-- 危險雷射線（紅色水平線） -->
  <rect x="140" y="180" width="680" height="2" fill="#CC0000" opacity="0.9"/>
  <rect x="140" y="180" width="680" height="1" fill="#FF4444" opacity="0.5"/>
  <rect x="200" y="188" width="4" height="4" fill="#FF0000" opacity="0.8"/>
  <rect x="400" y="178" width="4" height="4" fill="#FF0000" opacity="0.8"/>
  <rect x="600" y="182" width="4" height="4" fill="#FF0000" opacity="0.8"/>
  <rect x="740" y="176" width="4" height="6" fill="#FF0000" opacity="0.6"/>

  <rect x="140" y="340" width="680" height="2" fill="#CC0000" opacity="0.7"/>
  <rect x="140" y="340" width="680" height="1" fill="#FF4444" opacity="0.4"/>
  <rect x="300" y="338" width="4" height="4" fill="#FF0000" opacity="0.6"/>
  <rect x="500" y="342" width="4" height="4" fill="#FF0000" opacity="0.6"/>
  <rect x="680" y="336" width="4" height="6" fill="#FF0000" opacity="0.5"/>

  <rect x="140" y="260" width="680" height="1" fill="#880000" opacity="0.5"/>

  <!-- 雷射光點（牆上的反射） -->
  <rect x="140" y="178" width="8" height="6" fill="#FF2020" opacity="0.9"/>
  <rect x="820" y="178" width="8" height="6" fill="#FF2020" opacity="0.9"/>
  <rect x="140" y="338" width="8" height="6" fill="#FF2020" opacity="0.7"/>
  <rect x="820" y="338" width="8" height="6" fill="#FF2020" opacity="0.7"/>

  <!-- ======================================= -->
  <!-- 左側大標題 "GHOST MISSION"（像素方格字） -->
  <!-- 使用 SVG 繪製大型像素字母，每格 8px -->

  <!-- GHOST (大) — 字母高 48px -->
  <!-- G -->
  <rect x="160" y="130" width="32" height="8" fill="#FFFFFF"/>
  <rect x="160" y="130" width="8" height="48" fill="#FFFFFF"/>
  <rect x="160" y="170" width="32" height="8" fill="#FFFFFF"/>
  <rect x="184" y="170" width="8" height="8" fill="#FFFFFF"/>
  <rect x="184" y="178" width="8" height="8" fill="#FFFFFF"/>
  <rect x="160" y="170" width="32" height="8" fill="#FFFFFF"/>
  <!-- G下邊 -->
  <rect x="160" y="170" width="32" height="8" fill="#FFFFFF"/>

  <!-- H -->
  <rect x="200" y="130" width="8" height="48" fill="#FFFFFF"/>
  <rect x="200" y="152" width="28" height="8" fill="#FFFFFF"/>
  <rect x="220" y="130" width="8" height="48" fill="#FFFFFF"/>

  <!-- O -->
  <rect x="240" y="130" width="32" height="8" fill="#FFFFFF"/>
  <rect x="240" y="130" width="8" height="48" fill="#FFFFFF"/>
  <rect x="264" y="130" width="8" height="48" fill="#FFFFFF"/>
  <rect x="240" y="170" width="32" height="8" fill="#FFFFFF"/>

  <!-- S -->
  <rect x="284" y="130" width="28" height="8" fill="#FFFFFF"/>
  <rect x="284" y="130" width="8" height="24" fill="#FFFFFF"/>
  <rect x="284" y="150" width="28" height="8" fill="#FFFFFF"/>
  <rect x="304" y="154" width="8" height="24" fill="#FFFFFF"/>
  <rect x="284" y="170" width="28" height="8" fill="#FFFFFF"/>

  <!-- T -->
  <rect x="324" y="130" width="32" height="8" fill="#FFFFFF"/>
  <rect x="336" y="130" width="8" height="48" fill="#FFFFFF"/>

  <!-- MISSION (中) — 字母高 40px，使用紅色 -->
  <!-- M -->
  <rect x="160" y="200" width="8" height="40" fill="#CC2020"/>
  <rect x="160" y="200" width="16" height="8" fill="#CC2020"/>
  <rect x="172" y="208" width="8" height="12" fill="#CC2020"/>
  <rect x="176" y="200" width="16" height="8" fill="#CC2020"/>
  <rect x="184" y="200" width="8" height="40" fill="#CC2020"/>

  <!-- I -->
  <rect x="200" y="200" width="24" height="8" fill="#CC2020"/>
  <rect x="208" y="200" width="8" height="40" fill="#CC2020"/>
  <rect x="200" y="232" width="24" height="8" fill="#CC2020"/>

  <!-- S -->
  <rect x="234" y="200" width="24" height="8" fill="#CC2020"/>
  <rect x="234" y="200" width="8" height="20" fill="#CC2020"/>
  <rect x="234" y="216" width="24" height="8" fill="#CC2020"/>
  <rect x="250" y="220" width="8" height="20" fill="#CC2020"/>
  <rect x="234" y="232" width="24" height="8" fill="#CC2020"/>

  <!-- S -->
  <rect x="268" y="200" width="24" height="8" fill="#CC2020"/>
  <rect x="268" y="200" width="8" height="20" fill="#CC2020"/>
  <rect x="268" y="216" width="24" height="8" fill="#CC2020"/>
  <rect x="284" y="220" width="8" height="20" fill="#CC2020"/>
  <rect x="268" y="232" width="24" height="8" fill="#CC2020"/>

  <!-- I -->
  <rect x="302" y="200" width="20" height="8" fill="#CC2020"/>
  <rect x="308" y="200" width="8" height="40" fill="#CC2020"/>
  <rect x="302" y="232" width="20" height="8" fill="#CC2020"/>

  <!-- O -->
  <rect x="332" y="200" width="24" height="8" fill="#CC2020"/>
  <rect x="332" y="200" width="8" height="40" fill="#CC2020"/>
  <rect x="348" y="200" width="8" height="40" fill="#CC2020"/>
  <rect x="332" y="232" width="24" height="8" fill="#CC2020"/>

  <!-- N -->
  <rect x="366" y="200" width="8" height="40" fill="#CC2020"/>
  <rect x="366" y="200" width="12" height="8" fill="#CC2020"/>
  <rect x="374" y="208" width="8" height="12" fill="#CC2020"/>
  <rect x="378" y="216" width="8" height="12" fill="#CC2020"/>
  <rect x="386" y="200" width="8" height="40" fill="#CC2020"/>

  <!-- 副標 -->
  <rect x="160" y="256" width="240" height="2" fill="#445566"/>
  <text x="160" y="278" font-family="monospace" font-size="16" fill="#AABBCC" font-weight="bold">4 AGENTS. ONE MISSION.</text>
  <text x="160" y="300" font-family="monospace" font-size="12" fill="#667788">TACTICAL ROGUELITE  |  TOP-DOWN PIXEL</text>

  <!-- ======================================= -->
  <!-- 右側 6 個角色頭像框 -->
  <!-- 每個 80x80px，帶顏色框和像素頭盔 -->

  <!-- 盾兵 (藍) -->
  <rect x="580" y="150" width="68" height="68" fill="#0A1020"/>
  <rect x="580" y="150" width="68" height="4" fill="#2A5AD4"/>
  <rect x="580" y="150" width="4" height="68" fill="#2A5AD4"/>
  <rect x="580" y="214" width="68" height="4" fill="#2A5AD4"/>
  <rect x="644" y="150" width="4" height="68" fill="#2A5AD4"/>
  <!-- 頭盔圖示 -->
  <rect x="596" y="162" width="36" height="4" fill="#2A5AD4"/>
  <rect x="592" y="166" width="44" height="4" fill="#2A5AD4"/>
  <rect x="592" y="170" width="44" height="4" fill="#2050C0"/>
  <rect x="592" y="174" width="44" height="4" fill="#2050C0"/>
  <rect x="592" y="178" width="44" height="4" fill="#2050C0"/>
  <rect x="592" y="182" width="44" height="4" fill="#2A5AD4"/>
  <rect x="596" y="186" width="36" height="4" fill="#2A5AD4"/>
  <!-- 眼睛 -->
  <rect x="596" y="170" width="10" height="8" fill="#102080"/>
  <rect x="622" y="170" width="10" height="8" fill="#102080"/>
  <rect x="600" y="198" width="28" height="16" fill="#1840A8"/>
  <text x="614" y="232" font-family="monospace" font-size="9" fill="#2A5AD4" text-anchor="middle">SHIELD</text>

  <!-- 醫療兵 (綠) -->
  <rect x="656" y="150" width="68" height="68" fill="#0A1010"/>
  <rect x="656" y="150" width="68" height="4" fill="#2A8C2A"/>
  <rect x="656" y="150" width="4" height="68" fill="#2A8C2A"/>
  <rect x="656" y="214" width="68" height="4" fill="#2A8C2A"/>
  <rect x="720" y="150" width="4" height="68" fill="#2A8C2A"/>
  <!-- 頭盔圖示 -->
  <rect x="672" y="162" width="36" height="4" fill="#2A8C2A"/>
  <rect x="668" y="166" width="44" height="4" fill="#2A8C2A"/>
  <rect x="668" y="170" width="44" height="4" fill="#228022"/>
  <rect x="668" y="174" width="44" height="4" fill="#228022"/>
  <rect x="668" y="178" width="44" height="4" fill="#228022"/>
  <rect x="668" y="182" width="44" height="4" fill="#2A8C2A"/>
  <rect x="672" y="186" width="36" height="4" fill="#2A8C2A"/>
  <!-- 眼睛 -->
  <rect x="672" y="170" width="10" height="8" fill="#0A2A0A"/>
  <rect x="698" y="170" width="10" height="8" fill="#0A2A0A"/>
  <!-- 十字 -->
  <rect x="684" y="198" width="12" height="16" fill="#FF4444"/>
  <rect x="678" y="204" width="24" height="4" fill="#FF4444"/>
  <text x="690" y="232" font-family="monospace" font-size="9" fill="#2A8C2A" text-anchor="middle">MEDIC</text>

  <!-- 突擊手 (橙) -->
  <rect x="732" y="150" width="68" height="68" fill="#100A00"/>
  <rect x="732" y="150" width="68" height="4" fill="#D46A00"/>
  <rect x="732" y="150" width="4" height="68" fill="#D46A00"/>
  <rect x="732" y="214" width="68" height="4" fill="#D46A00"/>
  <rect x="796" y="150" width="4" height="68" fill="#D46A00"/>
  <!-- 頭盔圖示 -->
  <rect x="748" y="162" width="36" height="4" fill="#D46A00"/>
  <rect x="744" y="166" width="44" height="4" fill="#D46A00"/>
  <rect x="744" y="170" width="44" height="4" fill="#B85C00"/>
  <rect x="744" y="174" width="44" height="4" fill="#B85C00"/>
  <rect x="744" y="178" width="44" height="4" fill="#B85C00"/>
  <rect x="744" y="182" width="44" height="4" fill="#D46A00"/>
  <rect x="748" y="186" width="36" height="4" fill="#D46A00"/>
  <!-- 眼睛 -->
  <rect x="748" y="170" width="10" height="8" fill="#401800"/>
  <rect x="774" y="170" width="10" height="8" fill="#401800"/>
  <!-- 步槍 -->
  <rect x="748" y="200" width="36" height="8" fill="#2A2A2A"/>
  <rect x="748" y="198" width="4" height="12" fill="#3A3A3A"/>
  <rect x="780" y="200" width="8" height="4" fill="#1A1A1A"/>
  <text x="766" y="232" font-family="monospace" font-size="9" fill="#D46A00" text-anchor="middle">ASSAULT</text>

  <!-- 狙擊手 (黃) -->
  <rect x="580" y="250" width="68" height="68" fill="#100E00"/>
  <rect x="580" y="250" width="68" height="4" fill="#C8A800"/>
  <rect x="580" y="250" width="4" height="68" fill="#C8A800"/>
  <rect x="580" y="314" width="68" height="4" fill="#C8A800"/>
  <rect x="644" y="250" width="4" height="68" fill="#C8A800"/>
  <!-- 頭盔圖示 -->
  <rect x="596" y="262" width="36" height="4" fill="#C8A800"/>
  <rect x="592" y="266" width="44" height="4" fill="#C8A800"/>
  <rect x="592" y="270" width="44" height="4" fill="#A88C00"/>
  <rect x="592" y="274" width="44" height="4" fill="#A88C00"/>
  <rect x="592" y="278" width="44" height="4" fill="#A88C00"/>
  <rect x="592" y="282" width="44" height="4" fill="#C8A800"/>
  <rect x="596" y="286" width="36" height="4" fill="#C8A800"/>
  <!-- 眼睛 -->
  <rect x="596" y="270" width="10" height="8" fill="#302000"/>
  <rect x="622" y="270" width="10" height="8" fill="#302000"/>
  <!-- 狙擊鏡 -->
  <rect x="600" y="300" width="28" height="12" fill="#1A1A1A"/>
  <rect x="612" y="296" width="4" height="20" fill="#2A2A2A"/>
  <rect x="604" y="304" width="20" height="4" fill="#2A2A2A"/>
  <text x="614" y="332" font-family="monospace" font-size="9" fill="#C8A800" text-anchor="middle">SNIPER</text>

  <!-- 爆破手 (紅) -->
  <rect x="656" y="250" width="68" height="68" fill="#100000"/>
  <rect x="656" y="250" width="68" height="4" fill="#CC2020"/>
  <rect x="656" y="250" width="4" height="68" fill="#CC2020"/>
  <rect x="656" y="314" width="68" height="4" fill="#CC2020"/>
  <rect x="720" y="250" width="4" height="68" fill="#CC2020"/>
  <!-- 頭盔圖示 -->
  <rect x="672" y="262" width="36" height="4" fill="#CC2020"/>
  <rect x="668" y="266" width="44" height="4" fill="#CC2020"/>
  <rect x="668" y="270" width="44" height="4" fill="#AA1818"/>
  <rect x="668" y="274" width="44" height="4" fill="#AA1818"/>
  <rect x="668" y="278" width="44" height="4" fill="#AA1818"/>
  <rect x="668" y="282" width="44" height="4" fill="#CC2020"/>
  <rect x="672" y="286" width="36" height="4" fill="#CC2020"/>
  <!-- 眼睛 -->
  <rect x="672" y="270" width="10" height="8" fill="#400000"/>
  <rect x="698" y="270" width="10" height="8" fill="#400000"/>
  <!-- 炸藥 -->
  <rect x="672" y="300" width="44" height="12" fill="#8B4A00"/>
  <rect x="676" y="300" width="10" height="12" fill="#A05800"/>
  <rect x="690" y="300" width="10" height="12" fill="#A05800"/>
  <rect x="704" y="300" width="8" height="12" fill="#A05800"/>
  <text x="690" y="332" font-family="monospace" font-size="9" fill="#CC2020" text-anchor="middle">DEMO</text>

  <!-- 偵察手 (青綠) -->
  <rect x="732" y="250" width="68" height="68" fill="#001010"/>
  <rect x="732" y="250" width="68" height="4" fill="#00A8A8"/>
  <rect x="732" y="250" width="4" height="68" fill="#00A8A8"/>
  <rect x="732" y="314" width="68" height="4" fill="#00A8A8"/>
  <rect x="796" y="250" width="4" height="68" fill="#00A8A8"/>
  <!-- 頭盔圖示 -->
  <rect x="748" y="262" width="36" height="4" fill="#00A8A8"/>
  <rect x="744" y="266" width="44" height="4" fill="#00A8A8"/>
  <rect x="744" y="270" width="44" height="4" fill="#008888"/>
  <rect x="744" y="274" width="44" height="4" fill="#008888"/>
  <rect x="744" y="278" width="44" height="4" fill="#008888"/>
  <rect x="744" y="282" width="44" height="4" fill="#00A8A8"/>
  <rect x="748" y="286" width="36" height="4" fill="#00A8A8"/>
  <!-- 眼睛 -->
  <rect x="748" y="270" width="10" height="8" fill="#002828"/>
  <rect x="774" y="270" width="10" height="8" fill="#002828"/>
  <!-- 偵察器 -->
  <rect x="752" y="300" width="28" height="8" fill="#004040"/>
  <rect x="752" y="298" width="4" height="12" fill="#006060"/>
  <rect x="776" y="300" width="4" height="4" fill="#00C8C8"/>
  <text x="766" y="332" font-family="monospace" font-size="9" fill="#00A8A8" text-anchor="middle">RECON</text>

  <!-- 右側區域標題 -->
  <text x="690" y="145" font-family="monospace" font-size="12" fill="#445566" text-anchor="middle">YOUR SQUAD</text>
  <rect x="580" y="336" width="220" height="2" fill="#334455"/>
  <text x="690" y="352" font-family="monospace" font-size="10" fill="#334455" text-anchor="middle">6 CLASSES AVAILABLE</text>

  <!-- 底部漸層淡出 -->
  <rect x="0" y="440" width="960" height="100" fill="url(#fadeBottom)"/>

  <!-- 左側漸層遮罩 -->
  <rect x="0" y="0" width="140" height="540" fill="url(#fadeLeft)"/>

  <!-- 右側漸層遮罩 -->
  <rect x="820" y="0" width="140" height="540" fill="url(#fadeRight)"/>

  <!-- 底部文字 -->
  <text x="480" y="525" font-family="monospace" font-size="11" fill="#223344" text-anchor="middle">AVAILABLE ON itch.io</text>

  <!-- 邊框 -->
  <rect x="0" y="0" width="960" height="4" fill="#CC2020" opacity="0.6"/>
  <rect x="0" y="536" width="960" height="4" fill="#CC2020" opacity="0.3"/>

  <!-- 角落標記 -->
  <rect x="0" y="0" width="12" height="12" fill="#CC2020"/>
  <rect x="948" y="0" width="12" height="12" fill="#CC2020"/>
  <rect x="0" y="528" width="12" height="12" fill="#CC2020"/>
  <rect x="948" y="528" width="12" height="12" fill="#CC2020"/>

  <!-- 中央分隔線 -->
  <rect x="558" y="100" width="2" height="380" fill="#1E2840" opacity="0.8"/>
  <rect x="554" y="100" width="2" height="380" fill="#141E30" opacity="0.5"/>
</svg>
