<svg xmlns="http://www.w3.org/2000/svg" width="630" height="500" shape-rendering="crispEdges">
  <defs>
    <linearGradient id="bg" x1="0" y1="0" x2="0" y2="1">
      <stop offset="0%" stop-color="#0A0C0F"/>
      <stop offset="100%" stop-color="#0D1020"/>
    </linearGradient>
    <linearGradient id="fog" x1="0" y1="0" x2="0" y2="1">
      <stop offset="0%" stop-color="#0D1020" stop-opacity="0"/>
      <stop offset="100%" stop-color="#0A0C0F" stop-opacity="0.85"/>
    </linearGradient>
  </defs>

  <!-- 背景 -->
  <rect width="630" height="500" fill="url(#bg)"/>

  <!-- 地板格線（隱約網格感） -->
  <rect x="0" y="320" width="630" height="4" fill="#1A1E30" opacity="0.6"/>
  <rect x="0" y="340" width="630" height="2" fill="#1A1E30" opacity="0.4"/>
  <rect x="0" y="356" width="630" height="2" fill="#1A1E30" opacity="0.3"/>
  <rect x="0" y="368" width="630" height="2" fill="#1A1E30" opacity="0.2"/>
  <rect x="0" y="378" width="630" height="2" fill="#1A1E30" opacity="0.15"/>

  <!-- 垂直格線 -->
  <rect x="100" y="300" width="2" height="200" fill="#1A1E30" opacity="0.3"/>
  <rect x="200" y="300" width="2" height="200" fill="#1A1E30" opacity="0.3"/>
  <rect x="300" y="300" width="2" height="200" fill="#1A1E30" opacity="0.3"/>
  <rect x="400" y="300" width="2" height="200" fill="#1A1E30" opacity="0.3"/>
  <rect x="500" y="300" width="2" height="200" fill="#1A1E30" opacity="0.3"/>

  <!-- 底部掩體線 -->
  <rect x="0" y="390" width="630" height="110" fill="#0C0E16"/>
  <rect x="0" y="386" width="630" height="8" fill="#1C2035"/>
  <!-- 掩體細節 -->
  <rect x="40" y="390" width="120" height="20" fill="#161A28"/>
  <rect x="44" y="392" width="112" height="4" fill="#1E2438"/>
  <rect x="200" y="390" width="80" height="24" fill="#161A28"/>
  <rect x="204" y="392" width="72" height="4" fill="#1E2438"/>
  <rect x="360" y="390" width="100" height="20" fill="#161A28"/>
  <rect x="364" y="392" width="92" height="4" fill="#1E2438"/>
  <rect x="500" y="390" width="90" height="18" fill="#161A28"/>
  <rect x="504" y="392" width="82" height="4" fill="#1E2438"/>

  <!-- ======================================= -->
  <!-- 盾兵（藍 #2A5AD4）最前方中央上，俯視角 -->
  <!-- 身體基礎 - 圓形頭盔頂視 -->
  <!-- 頭盔 -->
  <rect x="285" y="136" width="60" height="8" fill="#2A5AD4"/>
  <rect x="281" y="144" width="68" height="8" fill="#2A5AD4"/>
  <rect x="277" y="152" width="76" height="8" fill="#2050C0"/>
  <rect x="277" y="160" width="76" height="8" fill="#2050C0"/>
  <rect x="277" y="168" width="76" height="8" fill="#2050C0"/>
  <rect x="281" y="176" width="68" height="8" fill="#2A5AD4"/>
  <rect x="285" y="184" width="60" height="8" fill="#2A5AD4"/>
  <!-- 頭盔高光 -->
  <rect x="289" y="140" width="20" height="4" fill="#4070E8"/>
  <rect x="289" y="144" width="8" height="8" fill="#4070E8"/>
  <!-- 護目鏡 -->
  <rect x="285" y="152" width="16" height="12" fill="#102080"/>
  <rect x="329" y="152" width="16" height="12" fill="#102080"/>
  <rect x="289" y="152" width="8" height="4" fill="#2040A0"/>
  <rect x="333" y="152" width="8" height="4" fill="#2040A0"/>
  <!-- 盾牌（前方） -->
  <rect x="277" y="192" width="76" height="12" fill="#3060E0"/>
  <rect x="281" y="200" width="68" height="8" fill="#2A5AD4"/>
  <rect x="273" y="188" width="84" height="8" fill="#1840A8"/>
  <!-- 盾牌反光 -->
  <rect x="285" y="192" width="28" height="4" fill="#4878F0"/>

  <!-- ======================================= -->
  <!-- 突擊手（橙 #D46A00）左後方 -->
  <rect x="144" y="220" width="52" height="8" fill="#D46A00"/>
  <rect x="140" y="228" width="60" height="8" fill="#D46A00"/>
  <rect x="136" y="236" width="68" height="8" fill="#B85C00"/>
  <rect x="136" y="244" width="68" height="8" fill="#B85C00"/>
  <rect x="136" y="252" width="68" height="8" fill="#B85C00"/>
  <rect x="140" y="260" width="60" height="8" fill="#D46A00"/>
  <rect x="144" y="268" width="52" height="8" fill="#D46A00"/>
  <!-- 護目鏡 -->
  <rect x="144" y="236" width="16" height="12" fill="#401800"/>
  <rect x="180" y="236" width="16" height="12" fill="#401800"/>
  <!-- 步槍（右側） -->
  <rect x="200" y="240" width="36" height="8" fill="#2A2A2A"/>
  <rect x="200" y="238" width="4" height="12" fill="#3A3A3A"/>
  <rect x="232" y="240" width="8" height="4" fill="#1A1A1A"/>
  <!-- 高光 -->
  <rect x="148" y="224" width="16" height="4" fill="#E88020"/>

  <!-- ======================================= -->
  <!-- 爆破手（紅 #CC2020）右後方 -->
  <rect x="432" y="220" width="52" height="8" fill="#CC2020"/>
  <rect x="428" y="228" width="60" height="8" fill="#CC2020"/>
  <rect x="424" y="236" width="68" height="8" fill="#AA1818"/>
  <rect x="424" y="244" width="68" height="8" fill="#AA1818"/>
  <rect x="424" y="252" width="68" height="8" fill="#AA1818"/>
  <rect x="428" y="260" width="60" height="8" fill="#CC2020"/>
  <rect x="432" y="268" width="52" height="8" fill="#CC2020"/>
  <!-- 護目鏡 -->
  <rect x="432" y="236" width="16" height="12" fill="#400000"/>
  <rect x="468" y="236" width="16" height="12" fill="#400000"/>
  <!-- 炸藥包（身體下方） -->
  <rect x="436" y="272" width="56" height="12" fill="#8B4A00"/>
  <rect x="440" y="272" width="12" height="12" fill="#A05800"/>
  <rect x="456" y="272" width="12" height="12" fill="#A05800"/>
  <rect x="472" y="272" width="12" height="12" fill="#A05800"/>
  <!-- 高光 -->
  <rect x="436" y="224" width="16" height="4" fill="#E83030"/>

  <!-- ======================================= -->
  <!-- 醫療兵（綠 #2A8C2A）最後方中央 -->
  <rect x="285" y="284" width="60" height="8" fill="#2A8C2A"/>
  <rect x="281" y="292" width="68" height="8" fill="#2A8C2A"/>
  <rect x="277" y="300" width="76" height="8" fill="#228022"/>
  <rect x="277" y="308" width="76" height="8" fill="#228022"/>
  <rect x="277" y="316" width="76" height="8" fill="#228022"/>
  <rect x="281" y="324" width="68" height="8" fill="#2A8C2A"/>
  <rect x="285" y="332" width="60" height="8" fill="#2A8C2A"/>
  <!-- 護目鏡 -->
  <rect x="285" y="300" width="16" height="12" fill="#0A2A0A"/>
  <rect x="329" y="300" width="16" height="12" fill="#0A2A0A"/>
  <!-- 十字標誌 -->
  <rect x="309" y="300" width="12" height="28" fill="#FF4444"/>
  <rect x="301" y="308" width="28" height="12" fill="#FF4444"/>
  <rect x="313" y="300" width="4" height="28" fill="#FF6666"/>
  <!-- 高光 -->
  <rect x="289" y="288" width="16" height="4" fill="#40A840"/>

  <!-- ======================================= -->
  <!-- 紅色敵人（3隻橫排，右側） -->
  <!-- 敵人 1 -->
  <rect x="516" y="148" width="40" height="8" fill="#CC1010"/>
  <rect x="512" y="156" width="48" height="8" fill="#CC1010"/>
  <rect x="508" y="164" width="56" height="8" fill="#AA0808"/>
  <rect x="508" y="172" width="56" height="8" fill="#AA0808"/>
  <rect x="512" y="180" width="48" height="8" fill="#CC1010"/>
  <rect x="516" y="188" width="40" height="8" fill="#CC1010"/>
  <!-- 敵人眼睛 -->
  <rect x="516" y="164" width="12" height="8" fill="#FF2222"/>
  <rect x="540" y="164" width="12" height="8" fill="#FF2222"/>
  <!-- 敵人步槍（向左） -->
  <rect x="468" y="168" width="44" height="8" fill="#2A2A2A"/>
  <rect x="464" y="168" width="8" height="8" fill="#1A1A1A"/>

  <!-- 敵人 2 -->
  <rect x="516" y="212" width="40" height="8" fill="#CC1010"/>
  <rect x="512" y="220" width="48" height="8" fill="#CC1010"/>
  <rect x="508" y="228" width="56" height="8" fill="#AA0808"/>
  <rect x="508" y="236" width="56" height="8" fill="#AA0808"/>
  <rect x="512" y="244" width="48" height="8" fill="#CC1010"/>
  <rect x="516" y="252" width="40" height="8" fill="#CC1010"/>
  <!-- 敵人眼睛 -->
  <rect x="516" y="228" width="12" height="8" fill="#FF2222"/>
  <rect x="540" y="228" width="12" height="8" fill="#FF2222"/>
  <!-- 敵人步槍（向左） -->
  <rect x="468" y="232" width="44" height="8" fill="#2A2A2A"/>
  <rect x="464" y="232" width="8" height="8" fill="#1A1A1A"/>

  <!-- 敵人 3 -->
  <rect x="516" y="276" width="40" height="8" fill="#CC1010"/>
  <rect x="512" y="284" width="48" height="8" fill="#CC1010"/>
  <rect x="508" y="292" width="56" height="8" fill="#AA0808"/>
  <rect x="508" y="300" width="56" height="8" fill="#AA0808"/>
  <rect x="512" y="308" width="48" height="8" fill="#CC1010"/>
  <rect x="516" y="316" width="40" height="8" fill="#CC1010"/>
  <!-- 敵人眼睛 -->
  <rect x="516" y="292" width="12" height="8" fill="#FF2222"/>
  <rect x="540" y="292" width="12" height="8" fill="#FF2222"/>
  <!-- 敵人步槍（向左） -->
  <rect x="468" y="296" width="44" height="8" fill="#2A2A2A"/>
  <rect x="464" y="296" width="8" height="8" fill="#1A1A1A"/>

  <!-- ======================================= -->
  <!-- 槍口火光（黃色小方點） -->
  <rect x="456" y="242" width="8" height="8" fill="#FFD700"/>
  <rect x="452" y="246" width="4" height="4" fill="#FFAA00"/>
  <rect x="460" y="238" width="4" height="4" fill="#FFE840"/>
  <rect x="456" y="234" width="4" height="4" fill="#FFD700" opacity="0.6"/>

  <rect x="456" y="178" width="8" height="8" fill="#FFD700"/>
  <rect x="452" y="182" width="4" height="4" fill="#FFAA00"/>
  <rect x="460" y="174" width="4" height="4" fill="#FFE840"/>

  <rect x="456" y="306" width="8" height="8" fill="#FFD700"/>
  <rect x="452" y="310" width="4" height="4" fill="#FFAA00"/>
  <rect x="460" y="302" width="4" height="4" fill="#FFE840"/>

  <!-- 突擊手槍口火光（向右） -->
  <rect x="236" y="242" width="8" height="8" fill="#FFD700"/>
  <rect x="240" y="246" width="4" height="4" fill="#FFAA00"/>
  <rect x="240" y="238" width="4" height="4" fill="#FFE840"/>

  <!-- 彈殼（橙色小方點） -->
  <rect x="244" y="252" width="4" height="4" fill="#D46A00"/>
  <rect x="252" y="258" width="4" height="4" fill="#D46A00"/>
  <rect x="240" y="264" width="4" height="4" fill="#C06000"/>
  <rect x="248" y="248" width="4" height="4" fill="#D46A00" opacity="0.8"/>
  <rect x="256" y="246" width="4" height="4" fill="#D46A00" opacity="0.6"/>

  <!-- 彈孔裝飾 -->
  <rect x="500" y="200" width="8" height="8" fill="#1A0000"/>
  <rect x="502" y="202" width="4" height="4" fill="#2A0000"/>
  <rect x="496" y="260" width="8" height="8" fill="#1A0000"/>

  <!-- ======================================= -->
  <!-- 底部霧氣 -->
  <rect x="0" y="360" width="630" height="140" fill="url(#fog)"/>

  <!-- ======================================= -->
  <!-- 左上角 LOGO 文字 "GHOST MISSION"（像素風） -->
  <!-- G -->
  <rect x="20" y="20" width="28" height="4" fill="#FFFFFF"/>
  <rect x="20" y="20" width="4" height="32" fill="#FFFFFF"/>
  <rect x="20" y="48" width="28" height="4" fill="#FFFFFF"/>
  <rect x="36" y="36" width="12" height="16" fill="#FFFFFF"/>
  <rect x="44" y="36" width="4" height="4" fill="#FFFFFF"/>
  <!-- H -->
  <rect x="56" y="20" width="4" height="32" fill="#FFFFFF"/>
  <rect x="56" y="34" width="20" height="4" fill="#FFFFFF"/>
  <rect x="72" y="20" width="4" height="32" fill="#FFFFFF"/>
  <!-- O -->
  <rect x="84" y="20" width="24" height="4" fill="#FFFFFF"/>
  <rect x="84" y="20" width="4" height="32" fill="#FFFFFF"/>
  <rect x="104" y="20" width="4" height="32" fill="#FFFFFF"/>
  <rect x="84" y="48" width="24" height="4" fill="#FFFFFF"/>
  <!-- S -->
  <rect x="116" y="20" width="24" height="4" fill="#FFFFFF"/>
  <rect x="116" y="20" width="4" height="16" fill="#FFFFFF"/>
  <rect x="116" y="34" width="24" height="4" fill="#FFFFFF"/>
  <rect x="136" y="36" width="4" height="16" fill="#FFFFFF"/>
  <rect x="116" y="48" width="24" height="4" fill="#FFFFFF"/>
  <!-- T -->
  <rect x="148" y="20" width="24" height="4" fill="#FFFFFF"/>
  <rect x="158" y="20" width="4" height="32" fill="#FFFFFF"/>

  <!-- 空格後 MISSION -->
  <!-- M -->
  <rect x="20" y="62" width="4" height="32" fill="#FFFFFF"/>
  <rect x="20" y="62" width="12" height="4" fill="#FFFFFF"/>
  <rect x="28" y="66" width="4" height="8" fill="#FFFFFF"/>
  <rect x="32" y="62" width="12" height="4" fill="#FFFFFF"/>
  <rect x="40" y="62" width="4" height="32" fill="#FFFFFF"/>
  <!-- I -->
  <rect x="50" y="62" width="16" height="4" fill="#FFFFFF"/>
  <rect x="56" y="62" width="4" height="32" fill="#FFFFFF"/>
  <rect x="50" y="90" width="16" height="4" fill="#FFFFFF"/>
  <!-- S -->
  <rect x="74" y="62" width="20" height="4" fill="#FFFFFF"/>
  <rect x="74" y="62" width="4" height="16" fill="#FFFFFF"/>
  <rect x="74" y="76" width="20" height="4" fill="#FFFFFF"/>
  <rect x="90" y="78" width="4" height="16" fill="#FFFFFF"/>
  <rect x="74" y="90" width="20" height="4" fill="#FFFFFF"/>
  <!-- S -->
  <rect x="102" y="62" width="20" height="4" fill="#FFFFFF"/>
  <rect x="102" y="62" width="4" height="16" fill="#FFFFFF"/>
  <rect x="102" y="76" width="20" height="4" fill="#FFFFFF"/>
  <rect x="118" y="78" width="4" height="16" fill="#FFFFFF"/>
  <rect x="102" y="90" width="20" height="4" fill="#FFFFFF"/>
  <!-- I -->
  <rect x="130" y="62" width="16" height="4" fill="#FFFFFF"/>
  <rect x="136" y="62" width="4" height="32" fill="#FFFFFF"/>
  <rect x="130" y="90" width="16" height="4" fill="#FFFFFF"/>
  <!-- O -->
  <rect x="154" y="62" width="20" height="4" fill="#FFFFFF"/>
  <rect x="154" y="62" width="4" height="32" fill="#FFFFFF"/>
  <rect x="170" y="62" width="4" height="32" fill="#FFFFFF"/>
  <rect x="154" y="90" width="20" height="4" fill="#FFFFFF"/>
  <!-- N -->
  <rect x="182" y="62" width="4" height="32" fill="#FFFFFF"/>
  <rect x="182" y="62" width="8" height="4" fill="#FFFFFF"/>
  <rect x="186" y="66" width="4" height="8" fill="#FFFFFF"/>
  <rect x="190" y="70" width="4" height="8" fill="#FFFFFF"/>
  <rect x="194" y="74" width="4" height="8" fill="#FFFFFF"/>
  <rect x="198" y="62" width="4" height="32" fill="#FFFFFF"/>

  <!-- 右下角副標 "Tactical Roguelite" -->
  <text x="614" y="484" font-family="monospace" font-size="13" fill="#8899AA" text-anchor="end" font-weight="bold">Tactical Roguelite</text>
  <text x="614" y="468" font-family="monospace" font-size="11" fill="#556677" text-anchor="end">TOP-DOWN PIXEL STRATEGY</text>

  <!-- 職業標籤（角色下方） -->
  <rect x="263" y="208" width="84" height="16" fill="#0D1020" opacity="0.8"/>
  <text x="305" y="220" font-family="monospace" font-size="10" fill="#4A7AE8" text-anchor="middle">SHIELD</text>

  <rect x="108" y="280" width="84" height="16" fill="#0D1020" opacity="0.8"/>
  <text x="170" y="292" font-family="monospace" font-size="10" fill="#E88020" text-anchor="middle">ASSAULT</text>

  <rect x="396" y="280" width="84" height="16" fill="#0D1020" opacity="0.8"/>
  <text x="458" y="292" font-family="monospace" font-size="10" fill="#E83030" text-anchor="middle">DEMO</text>

  <rect x="263" y="348" width="84" height="16" fill="#0D1020" opacity="0.8"/>
  <text x="305" y="360" font-family="monospace" font-size="10" fill="#40A840" text-anchor="middle">MEDIC</text>

  <!-- 敵人標籤 -->
  <rect x="494" y="340" width="84" height="16" fill="#0D1020" opacity="0.8"/>
  <text x="536" y="352" font-family="monospace" font-size="10" fill="#CC2020" text-anchor="middle">ENEMY x3</text>

  <!-- 邊框裝飾（角落像素方框） -->
  <rect x="0" y="0" width="8" height="8" fill="#CC2020"/>
  <rect x="8" y="0" width="4" height="4" fill="#CC2020"/>
  <rect x="0" y="8" width="4" height="4" fill="#CC2020"/>

  <rect x="622" y="0" width="8" height="8" fill="#CC2020"/>
  <rect x="618" y="0" width="4" height="4" fill="#CC2020"/>
  <rect x="626" y="4" width="4" height="4" fill="#CC2020"/>

  <rect x="0" y="492" width="8" height="8" fill="#CC2020"/>
  <rect x="0" y="488" width="4" height="4" fill="#CC2020"/>
  <rect x="4" y="496" width="4" height="4" fill="#CC2020"/>

  <rect x="622" y="492" width="8" height="8" fill="#CC2020"/>
  <rect x="622" y="488" width="8" height="4" fill="#CC2020"/>
  <rect x="626" y="492" width="4" height="8" fill="#CC2020"/>

  <!-- 掃描線效果（輕微） -->
  <rect x="0" y="0" width="630" height="500" fill="none" stroke="#000000" stroke-width="0" opacity="0"/>
</svg>
