<svg xmlns="http://www.w3.org/2000/svg" width="256" height="256" shape-rendering="crispEdges">
  <defs>
    <linearGradient id="bgIcon" x1="0" y1="0" x2="0" y2="1">
      <stop offset="0%" stop-color="#0F1A3A"/>
      <stop offset="100%" stop-color="#080E20"/>
    </linearGradient>
    <linearGradient id="helmetGlow" x1="0" y1="0" x2="0" y2="1">
      <stop offset="0%" stop-color="#4070E8"/>
      <stop offset="100%" stop-color="#1840B0"/>
    </linearGradient>
  </defs>

  <!-- 背景（圓角方形） -->
  <rect width="256" height="256" rx="32" ry="32" fill="url(#bgIcon)"/>

  <!-- 背景紋理 -->
  <rect x="0" y="0" width="256" height="256" rx="32" ry="32" fill="none" stroke="#1A2A50" stroke-width="2"/>

  <!-- 微弱網格 -->
  <rect x="32" y="0" width="1" height="256" fill="#0F1830" opacity="0.6"/>
  <rect x="64" y="0" width="1" height="256" fill="#0F1830" opacity="0.6"/>
  <rect x="96" y="0" width="1" height="256" fill="#0F1830" opacity="0.6"/>
  <rect x="128" y="0" width="1" height="256" fill="#0F1830" opacity="0.8"/>
  <rect x="160" y="0" width="1" height="256" fill="#0F1830" opacity="0.6"/>
  <rect x="192" y="0" width="1" height="256" fill="#0F1830" opacity="0.6"/>
  <rect x="224" y="0" width="1" height="256" fill="#0F1830" opacity="0.6"/>
  <rect x="0" y="64" width="256" height="1" fill="#0F1830" opacity="0.6"/>
  <rect x="0" y="96" width="256" height="1" fill="#0F1830" opacity="0.6"/>
  <rect x="0" y="128" width="256" height="1" fill="#0F1830" opacity="0.8"/>
  <rect x="0" y="160" width="256" height="1" fill="#0F1830" opacity="0.6"/>
  <rect x="0" y="192" width="256" height="1" fill="#0F1830" opacity="0.6"/>

  <!-- ======================================= -->
  <!-- 盾兵頭盔（大型，像素方塊構成） -->
  <!-- 頭盔頂部 -->
  <rect x="80" y="40" width="96" height="8" fill="#2A5AD4"/>
  <!-- 頭盔上半 -->
  <rect x="72" y="48" width="112" height="8" fill="#2A5AD4"/>
  <rect x="64" y="56" width="128" height="8" fill="#3060E0"/>
  <rect x="60" y="64" width="136" height="8" fill="#3060E0"/>
  <rect x="56" y="72" width="144" height="8" fill="#2050C0"/>
  <rect x="56" y="80" width="144" height="8" fill="#2050C0"/>
  <rect x="56" y="88" width="144" height="8" fill="#2050C0"/>
  <rect x="56" y="96" width="144" height="8" fill="#2050C0"/>
  <rect x="56" y="104" width="144" height="8" fill="#2050C0"/>
  <!-- 頭盔下半 -->
  <rect x="56" y="112" width="144" height="8" fill="#1A40A0"/>
  <rect x="60" y="120" width="136" height="8" fill="#1A40A0"/>
  <rect x="64" y="128" width="128" height="8" fill="#1A40A0"/>
  <rect x="72" y="136" width="112" height="8" fill="#2A5AD4"/>
  <rect x="80" y="144" width="96" height="8" fill="#2A5AD4"/>
  <rect x="88" y="152" width="80" height="8" fill="#2A5AD4"/>

  <!-- 護目鏡（眼睛） -->
  <rect x="72" y="88" width="36" height="24" fill="#102080"/>
  <rect x="148" y="88" width="36" height="24" fill="#102080"/>
  <!-- 護目鏡反光 -->
  <rect x="76" y="90" width="16" height="8" fill="#1A30A8"/>
  <rect x="152" y="90" width="16" height="8" fill="#1A30A8"/>
  <!-- 護目鏡高光點 -->
  <rect x="76" y="90" width="6" height="4" fill="#3050C0"/>
  <rect x="152" y="90" width="6" height="4" fill="#3050C0"/>

  <!-- 面罩中間條 -->
  <rect x="112" y="88" width="32" height="24" fill="#1840A8"/>
  <rect x="116" y="92" width="24" height="16" fill="#0E2888"/>

  <!-- 頭盔高光（頂部光澤） -->
  <rect x="84" y="44" width="40" height="4" fill="#4A78F4"/>
  <rect x="76" y="52" width="24" height="4" fill="#4878F0"/>
  <rect x="72" y="60" width="16" height="4" fill="#406CE0"/>

  <!-- 頭盔兩側護耳 -->
  <rect x="44" y="80" width="16" height="40" fill="#1A3888"/>
  <rect x="40" y="84" width="8" height="32" fill="#1030A0"/>
  <rect x="196" y="80" width="16" height="40" fill="#1A3888"/>
  <rect x="212" y="84" width="8" height="32" fill="#1030A0"/>

  <!-- 護頸 -->
  <rect x="88" y="152" width="80" height="8" fill="#1840A8"/>
  <rect x="96" y="160" width="64" height="8" fill="#142878"/>
  <rect x="104" y="168" width="48" height="8" fill="#102060"/>

  <!-- ======================================= -->
  <!-- 準星十字（白色細線） -->
  <!-- 垂直線 -->
  <rect x="126" y="8" width="4" height="40" fill="#FFFFFF" opacity="0.9"/>
  <rect x="126" y="208" width="4" height="40" fill="#FFFFFF" opacity="0.9"/>
  <!-- 水平線 -->
  <rect x="8" y="126" width="40" height="4" fill="#FFFFFF" opacity="0.9"/>
  <rect x="208" y="126" width="40" height="4" fill="#FFFFFF" opacity="0.9"/>
  <!-- 準星中心點 -->
  <rect x="122" y="122" width="12" height="12" fill="none"/>
  <rect x="122" y="122" width="12" height="2" fill="#FFFFFF" opacity="0.8"/>
  <rect x="122" y="132" width="12" height="2" fill="#FFFFFF" opacity="0.8"/>
  <rect x="122" y="122" width="2" height="12" fill="#FFFFFF" opacity="0.8"/>
  <rect x="132" y="122" width="2" height="12" fill="#FFFFFF" opacity="0.8"/>
  <!-- 準星刻度 -->
  <rect x="126" y="52" width="4" height="8" fill="#FFFFFF" opacity="0.5"/>
  <rect x="126" y="196" width="4" height="8" fill="#FFFFFF" opacity="0.5"/>
  <rect x="52" y="126" width="8" height="4" fill="#FFFFFF" opacity="0.5"/>
  <rect x="196" y="126" width="8" height="4" fill="#FFFFFF" opacity="0.5"/>

  <!-- ======================================= -->
  <!-- 四角小型紅色敵人方格 -->
  <!-- 左上角 -->
  <rect x="16" y="16" width="24" height="4" fill="#CC1010"/>
  <rect x="12" y="20" width="32" height="4" fill="#CC1010"/>
  <rect x="12" y="24" width="32" height="4" fill="#AA0808"/>
  <rect x="12" y="28" width="32" height="4" fill="#AA0808"/>
  <rect x="12" y="32" width="32" height="4" fill="#CC1010"/>
  <rect x="16" y="36" width="24" height="4" fill="#CC1010"/>
  <!-- 眼睛 -->
  <rect x="16" y="24" width="8" height="4" fill="#FF2222"/>
  <rect x="32" y="24" width="8" height="4" fill="#FF2222"/>

  <!-- 右上角 -->
  <rect x="216" y="16" width="24" height="4" fill="#CC1010"/>
  <rect x="212" y="20" width="32" height="4" fill="#CC1010"/>
  <rect x="212" y="24" width="32" height="4" fill="#AA0808"/>
  <rect x="212" y="28" width="32" height="4" fill="#AA0808"/>
  <rect x="212" y="32" width="32" height="4" fill="#CC1010"/>
  <rect x="216" y="36" width="24" height="4" fill="#CC1010"/>
  <!-- 眼睛 -->
  <rect x="216" y="24" width="8" height="4" fill="#FF2222"/>
  <rect x="232" y="24" width="8" height="4" fill="#FF2222"/>

  <!-- 左下角 -->
  <rect x="16" y="212" width="24" height="4" fill="#CC1010"/>
  <rect x="12" y="216" width="32" height="4" fill="#CC1010"/>
  <rect x="12" y="220" width="32" height="4" fill="#AA0808"/>
  <rect x="12" y="224" width="32" height="4" fill="#AA0808"/>
  <rect x="12" y="228" width="32" height="4" fill="#CC1010"/>
  <rect x="16" y="232" width="24" height="4" fill="#CC1010"/>
  <!-- 眼睛 -->
  <rect x="16" y="220" width="8" height="4" fill="#FF2222"/>
  <rect x="32" y="220" width="8" height="4" fill="#FF2222"/>

  <!-- 右下角 -->
  <rect x="216" y="212" width="24" height="4" fill="#CC1010"/>
  <rect x="212" y="216" width="32" height="4" fill="#CC1010"/>
  <rect x="212" y="220" width="32" height="4" fill="#AA0808"/>
  <rect x="212" y="224" width="32" height="4" fill="#AA0808"/>
  <rect x="212" y="228" width="32" height="4" fill="#CC1010"/>
  <rect x="216" y="232" width="24" height="4" fill="#CC1010"/>
  <!-- 眼睛 -->
  <rect x="216" y="220" width="8" height="4" fill="#FF2222"/>
  <rect x="232" y="220" width="8" height="4" fill="#FF2222"/>

  <!-- ======================================= -->
  <!-- 底部像素字 "GHOST" -->
  <!-- G -->
  <rect x="28" y="220" width="20" height="4" fill="#FFFFFF"/>
  <rect x="28" y="220" width="4" height="20" fill="#FFFFFF"/>
  <rect x="28" y="236" width="20" height="4" fill="#FFFFFF"/>
  <rect x="40" y="236" width="8" height="4" fill="#FFFFFF"/>
  <rect x="28" y="236" width="20" height="4" fill="#FFFFFF"/>

  <!-- H -->
  <rect x="56" y="220" width="4" height="20" fill="#FFFFFF"/>
  <rect x="56" y="228" width="16" height="4" fill="#FFFFFF"/>
  <rect x="68" y="220" width="4" height="20" fill="#FFFFFF"/>

  <!-- O -->
  <rect x="80" y="220" width="20" height="4" fill="#FFFFFF"/>
  <rect x="80" y="220" width="4" height="20" fill="#FFFFFF"/>
  <rect x="96" y="220" width="4" height="20" fill="#FFFFFF"/>
  <rect x="80" y="236" width="20" height="4" fill="#FFFFFF"/>

  <!-- S -->
  <rect x="108" y="220" width="20" height="4" fill="#FFFFFF"/>
  <rect x="108" y="220" width="4" height="12" fill="#FFFFFF"/>
  <rect x="108" y="228" width="20" height="4" fill="#FFFFFF"/>
  <rect x="124" y="228" width="4" height="12" fill="#FFFFFF"/>
  <rect x="108" y="236" width="20" height="4" fill="#FFFFFF"/>

  <!-- T -->
  <rect x="136" y="220" width="20" height="4" fill="#FFFFFF"/>
  <rect x="144" y="220" width="4" height="20" fill="#FFFFFF"/>

  <!-- 底部裝飾線 -->
  <rect x="20" y="216" width="216" height="2" fill="#2A5AD4" opacity="0.5"/>

  <!-- 外框高光 -->
  <rect x="0" y="0" width="256" height="256" rx="32" ry="32" fill="none" stroke="#2A5AD4" stroke-width="2" opacity="0.4"/>
</svg>
