<svg xmlns="http://www.w3.org/2000/svg" width="300" height="22" shape-rendering="crispEdges">
  <!-- 地面陰影 -->
  <rect x="0" y="20" width="300" height="2" fill="#0E0E12"/>
  <!-- 混凝土路障三段（澤西護欄造型，梯形） -->
  <!-- 段1 -->
  <polygon points="6,20 16,4 88,4 98,20" fill="#3A3D45"/>
  <polygon points="16,4 88,4 84,8 20,8" fill="#4E525C"/>
  <rect x="20" y="9" width="64" height="4" fill="#2C2E35"/>
  <!-- 危險條紋 -->
  <polygon points="24,13 34,13 28,20 18,20" fill="#C8A21E"/>
  <polygon points="44,13 54,13 48,20 38,20" fill="#C8A21E"/>
  <polygon points="64,13 74,13 68,20 58,20" fill="#C8A21E"/>
  <!-- 段2 -->
  <polygon points="106,20 116,4 188,4 198,20" fill="#3A3D45"/>
  <polygon points="116,4 188,4 184,8 120,8" fill="#4E525C"/>
  <rect x="120" y="9" width="64" height="4" fill="#2C2E35"/>
  <polygon points="124,13 134,13 128,20 118,20" fill="#C8A21E"/>
  <polygon points="144,13 154,13 148,20 138,20" fill="#C8A21E"/>
  <polygon points="164,13 174,13 168,20 158,20" fill="#C8A21E"/>
  <!-- 段3 -->
  <polygon points="206,20 216,4 288,4 298,20" fill="#3A3D45"/>
  <polygon points="216,4 288,4 284,8 220,8" fill="#4E525C"/>
  <rect x="220" y="9" width="64" height="4" fill="#2C2E35"/>
  <polygon points="224,13 234,13 228,20 218,20" fill="#C8A21E"/>
  <polygon points="244,13 254,13 248,20 238,20" fill="#C8A21E"/>
  <polygon points="264,13 274,13 268,20 258,20" fill="#C8A21E"/>
  <!-- 彈孔/磨損 -->
  <rect x="50" y="6" width="3" height="3" fill="#23252B"/>
  <rect x="150" y="6" width="3" height="3" fill="#23252B"/>
  <rect x="250" y="6" width="3" height="3" fill="#23252B"/>
</svg>
