<svg xmlns="http://www.w3.org/2000/svg" width="300" height="22" shape-rendering="crispEdges">
  <rect x="0" y="20" width="300" height="2" fill="#08080A"/>
  <rect x="4"  y="3" width="92" height="17" fill="#363941"/>
  <rect x="4"  y="3" width="92" height="2"  fill="#4E535D"/>
  <rect x="4"  y="18" width="92" height="2" fill="#1E2024"/>
  <rect x="49" y="3" width="2"  height="17" fill="#1A1C20"/>
  <rect x="8"  y="6" width="2" height="2" fill="#5E636C"/>
  <rect x="88" y="6" width="2" height="2" fill="#5E636C"/>
  <rect x="8"  y="15" width="2" height="2" fill="#5E636C"/>
  <rect x="88" y="15" width="2" height="2" fill="#5E636C"/>
  <rect x="12" y="10" width="76" height="4" fill="#B22C2C"/>
  <rect x="22" y="10" width="3" height="4" fill="#16171B"/>
  <rect x="42" y="10" width="3" height="4" fill="#16171B"/>
  <rect x="62" y="10" width="3" height="4" fill="#16171B"/>
  <rect x="103" y="3" width="92" height="17" fill="#363941"/>
  <rect x="103" y="3" width="92" height="2"  fill="#4E535D"/>
  <rect x="103" y="18" width="92" height="2" fill="#1E2024"/>
  <rect x="148" y="3" width="2"  height="17" fill="#1A1C20"/>
  <rect x="107" y="6" width="2" height="2" fill="#5E636C"/>
  <rect x="187" y="6" width="2" height="2" fill="#5E636C"/>
  <rect x="107" y="15" width="2" height="2" fill="#5E636C"/>
  <rect x="187" y="15" width="2" height="2" fill="#5E636C"/>
  <rect x="111" y="10" width="76" height="4" fill="#B22C2C"/>
  <rect x="121" y="10" width="3" height="4" fill="#16171B"/>
  <rect x="141" y="10" width="3" height="4" fill="#16171B"/>
  <rect x="161" y="10" width="3" height="4" fill="#16171B"/>
  <rect x="202" y="3" width="92" height="17" fill="#363941"/>
  <rect x="202" y="3" width="92" height="2"  fill="#4E535D"/>
  <rect x="202" y="18" width="92" height="2" fill="#1E2024"/>
  <rect x="247" y="3" width="2"  height="17" fill="#1A1C20"/>
  <rect x="206" y="6" width="2" height="2" fill="#5E636C"/>
  <rect x="286" y="6" width="2" height="2" fill="#5E636C"/>
  <rect x="206" y="15" width="2" height="2" fill="#5E636C"/>
  <rect x="286" y="15" width="2" height="2" fill="#5E636C"/>
  <rect x="210" y="10" width="76" height="4" fill="#B22C2C"/>
  <rect x="220" y="10" width="3" height="4" fill="#16171B"/>
  <rect x="240" y="10" width="3" height="4" fill="#16171B"/>
  <rect x="260" y="10" width="3" height="4" fill="#16171B"/>
</svg>
