<svg xmlns="http://www.w3.org/2000/svg" width="300" height="22" shape-rendering="crispEdges">
  <rect x="0" y="20" width="300" height="2" fill="#08080A"/>
  <!-- 三片鉚釘鋼板路障 -->
  <!-- panel 1 -->
  <rect x="4"  y="3" width="92" height="17" fill="#34373E"/>
  <rect x="4"  y="3" width="92" height="2"  fill="#4C515B"/>
  <rect x="4"  y="18" width="92" height="2" fill="#1C1E22"/>
  <rect x="49" y="3" width="2"  height="17" fill="#191B1F"/>
  <rect x="8"  y="6" width="2" height="2" fill="#5C616A"/>
  <rect x="88" y="6" width="2" height="2" fill="#5C616A"/>
  <rect x="8"  y="15" width="2" height="2" fill="#5C616A"/>
  <rect x="88" y="15" width="2" height="2" fill="#5C616A"/>
  <rect x="12" y="10" width="76" height="4" fill="#A82828"/>
  <rect x="22" y="10" width="3" height="4" fill="#15161A"/>
  <rect x="42" y="10" width="3" height="4" fill="#15161A"/>
  <rect x="62" y="10" width="3" height="4" fill="#15161A"/>
  <!-- panel 2 -->
  <rect x="103" y="3" width="92" height="17" fill="#34373E"/>
  <rect x="103" y="3" width="92" height="2"  fill="#4C515B"/>
  <rect x="103" y="18" width="92" height="2" fill="#1C1E22"/>
  <rect x="148" y="3" width="2"  height="17" fill="#191B1F"/>
  <rect x="107" y="6" width="2" height="2" fill="#5C616A"/>
  <rect x="187" y="6" width="2" height="2" fill="#5C616A"/>
  <rect x="107" y="15" width="2" height="2" fill="#5C616A"/>
  <rect x="187" y="15" width="2" height="2" fill="#5C616A"/>
  <rect x="111" y="10" width="76" height="4" fill="#A82828"/>
  <rect x="121" y="10" width="3" height="4" fill="#15161A"/>
  <rect x="141" y="10" width="3" height="4" fill="#15161A"/>
  <rect x="161" y="10" width="3" height="4" fill="#15161A"/>
  <!-- panel 3 -->
  <rect x="202" y="3" width="92" height="17" fill="#34373E"/>
  <rect x="202" y="3" width="92" height="2"  fill="#4C515B"/>
  <rect x="202" y="18" width="92" height="2" fill="#1C1E22"/>
  <rect x="247" y="3" width="2"  height="17" fill="#191B1F"/>
  <rect x="206" y="6" width="2" height="2" fill="#5C616A"/>
  <rect x="286" y="6" width="2" height="2" fill="#5C616A"/>
  <rect x="206" y="15" width="2" height="2" fill="#5C616A"/>
  <rect x="286" y="15" width="2" height="2" fill="#5C616A"/>
  <rect x="210" y="10" width="76" height="4" fill="#A82828"/>
  <rect x="220" y="10" width="3" height="4" fill="#15161A"/>
  <rect x="240" y="10" width="3" height="4" fill="#15161A"/>
  <rect x="260" y="10" width="3" height="4" fill="#15161A"/>
</svg>
