<svg xmlns="http://www.w3.org/2000/svg" width="300" height="22" shape-rendering="crispEdges">
  <rect x="0" y="20" width="300" height="2" fill="#08080A"/>
  <rect x="4"  y="3" width="92" height="17" fill="#32353C"/>
  <rect x="4"  y="3" width="92" height="2"  fill="#494E58"/>
  <rect x="4"  y="18" width="92" height="2" fill="#1A1C20"/>
  <rect x="49" y="3" width="2"  height="17" fill="#17191D"/>
  <rect x="8"  y="6" width="2" height="2" fill="#595E67"/>
  <rect x="88" y="6" width="2" height="2" fill="#595E67"/>
  <rect x="8"  y="15" width="2" height="2" fill="#595E67"/>
  <rect x="88" y="15" width="2" height="2" fill="#595E67"/>
  <rect x="12" y="10" width="76" height="4" fill="#9E2424"/>
  <rect x="22" y="10" width="3" height="4" fill="#131418"/>
  <rect x="42" y="10" width="3" height="4" fill="#131418"/>
  <rect x="62" y="10" width="3" height="4" fill="#131418"/>
  <rect x="103" y="3" width="92" height="17" fill="#32353C"/>
  <rect x="103" y="3" width="92" height="2"  fill="#494E58"/>
  <rect x="103" y="18" width="92" height="2" fill="#1A1C20"/>
  <rect x="148" y="3" width="2"  height="17" fill="#17191D"/>
  <rect x="107" y="6" width="2" height="2" fill="#595E67"/>
  <rect x="187" y="6" width="2" height="2" fill="#595E67"/>
  <rect x="107" y="15" width="2" height="2" fill="#595E67"/>
  <rect x="187" y="15" width="2" height="2" fill="#595E67"/>
  <rect x="111" y="10" width="76" height="4" fill="#9E2424"/>
  <rect x="121" y="10" width="3" height="4" fill="#131418"/>
  <rect x="141" y="10" width="3" height="4" fill="#131418"/>
  <rect x="161" y="10" width="3" height="4" fill="#131418"/>
  <rect x="202" y="3" width="92" height="17" fill="#32353C"/>
  <rect x="202" y="3" width="92" height="2"  fill="#494E58"/>
  <rect x="202" y="18" width="92" height="2" fill="#1A1C20"/>
  <rect x="247" y="3" width="2"  height="17" fill="#17191D"/>
  <rect x="206" y="6" width="2" height="2" fill="#595E67"/>
  <rect x="286" y="6" width="2" height="2" fill="#595E67"/>
  <rect x="206" y="15" width="2" height="2" fill="#595E67"/>
  <rect x="286" y="15" width="2" height="2" fill="#595E67"/>
  <rect x="210" y="10" width="76" height="4" fill="#9E2424"/>
  <rect x="220" y="10" width="3" height="4" fill="#131418"/>
  <rect x="240" y="10" width="3" height="4" fill="#131418"/>
  <rect x="260" y="10" width="3" height="4" fill="#131418"/>
</svg>
