<svg xmlns="http://www.w3.org/2000/svg" width="300" height="22" shape-rendering="crispEdges">
  <rect x="0" y="19" width="300" height="3" fill="#1C140F"/>
  <rect x="-9.0" y="2" width="93.0" height="18" rx="6" ry="6" fill="#5A463A"/>
  <rect x="-5.0" y="3" width="85.0" height="3" rx="2" fill="#74604E"/>
  <rect x="-6.0" y="15" width="87.0" height="3" rx="2" fill="#382A22"/>
  <rect x="0.0" y="2" width="2" height="17" fill="#2A1E18"/>
  <rect x="30" y="15" width="4" height="3" fill="#1C140F"/>
  <rect x="66.0" y="2" width="93.0" height="18" rx="6" ry="6" fill="#74604E"/>
  <rect x="70.0" y="3" width="85.0" height="3" rx="2" fill="#74604E"/>
  <rect x="69.0" y="15" width="87.0" height="3" rx="2" fill="#382A22"/>
  <rect x="75.0" y="2" width="2" height="17" fill="#2A1E18"/>
  <rect x="111" y="10" width="4" height="3" fill="#1C140F"/>
  <rect x="141.0" y="2" width="93.0" height="18" rx="6" ry="6" fill="#5A463A"/>
  <rect x="145.0" y="3" width="85.0" height="3" rx="2" fill="#74604E"/>
  <rect x="144.0" y="15" width="87.0" height="3" rx="2" fill="#382A22"/>
  <rect x="150.0" y="2" width="2" height="17" fill="#2A1E18"/>
  <rect x="170" y="11" width="4" height="3" fill="#1C140F"/>
  <rect x="216.0" y="2" width="93.0" height="18" rx="6" ry="6" fill="#74604E"/>
  <rect x="220.0" y="3" width="85.0" height="3" rx="2" fill="#74604E"/>
  <rect x="219.0" y="15" width="87.0" height="3" rx="2" fill="#382A22"/>
  <rect x="225.0" y="2" width="2" height="17" fill="#2A1E18"/>
  <rect x="242" y="12" width="4" height="3" fill="#1C140F"/>
  <rect x="0" y="1" width="300" height="1" fill="#74604E"/>
</svg>