<svg xmlns="http://www.w3.org/2000/svg" width="180" height="56">
  <ellipse cx="90.0" cy="53" rx="86.0" ry="4" fill="#1A180C"/>
  <rect x="0.0" y="23" width="69.2" height="28" rx="7" ry="7" fill="#6E6A4D"/>
  <rect x="5.0" y="24" width="59.2" height="3" rx="2" fill="#8E8A66"/>
  <rect x="4.0" y="47" width="61.2" height="3" rx="2" fill="#45422E"/>
  <rect x="33.6" y="25" width="2" height="24" fill="#3A3724"/>

  <rect x="55.4" y="23" width="69.2" height="28" rx="7" ry="7" fill="#8E8A66"/>
  <rect x="60.4" y="24" width="59.2" height="3" rx="2" fill="#8E8A66"/>
  <rect x="59.4" y="47" width="61.2" height="3" rx="2" fill="#45422E"/>
  <rect x="89.0" y="25" width="2" height="24" fill="#3A3724"/>

  <rect x="110.8" y="23" width="69.2" height="28" rx="7" ry="7" fill="#6E6A4D"/>
  <rect x="115.8" y="24" width="59.2" height="3" rx="2" fill="#8E8A66"/>
  <rect x="114.8" y="47" width="61.2" height="3" rx="2" fill="#45422E"/>
  <rect x="144.4" y="25" width="2" height="24" fill="#3A3724"/>

  <rect x="31.0" y="3" width="69.2" height="28" rx="7" ry="7" fill="#8E8A66"/>
  <rect x="36.0" y="4" width="59.2" height="3" rx="2" fill="#8E8A66"/>
  <rect x="35.0" y="27" width="61.2" height="3" rx="2" fill="#45422E"/>
  <rect x="64.6" y="5" width="2" height="24" fill="#3A3724"/>

  <rect x="79.8" y="3" width="69.2" height="28" rx="7" ry="7" fill="#6E6A4D"/>
  <rect x="84.8" y="4" width="59.2" height="3" rx="2" fill="#8E8A66"/>
  <rect x="83.8" y="27" width="61.2" height="3" rx="2" fill="#45422E"/>
  <rect x="113.4" y="5" width="2" height="24" fill="#3A3724"/>

</svg>